<?xml version="1.0" encoding="utf-8"?>
<!-- Generator: Adobe Illustrator 22.0.1, SVG Export Plug-In . SVG Version: 6.00 Build 0)  -->
<svg version="1.1" id="Layer_1" xmlns="http://www.w3.org/2000/svg" xmlns:xlink="http://www.w3.org/1999/xlink" x="0px" y="0px"
	 viewBox="0 0 360 50" style="enable-background:new 0 0 360 50;" xml:space="preserve">
<style type="text/css">
	.st0{fill:#FCB919;}
	.st1{fill:#FFFFFF;}
</style>
<g>
	<path class="st0" d="M41.9,34.1c0,0.1,0.1,0.2,0.1,0.2c0.1-0.1,0.2-0.1,0.3-0.2c0.1-0.1,0.2-0.1,0.3-0.1c0-0.1-0.1-0.2-0.1-0.2
		c-0.1,0-0.2,0.1-0.3,0.2C42.1,34,42,34.1,41.9,34.1z"/>
	<path class="st0" d="M29.2,26.9c0.1-0.1,0.3-0.2,0.4-0.3c-0.1-0.1-0.1-0.1-0.2-0.2c-0.1,0.1-0.3,0.2-0.4,0.3
		C29.1,26.8,29.1,26.9,29.2,26.9z"/>
	<path class="st0" d="M30,26.3c0.1-0.1,0.3-0.2,0.4-0.3c0.1-0.1,0.3-0.2,0.4-0.3c0.1-0.1,0.3-0.2,0.4-0.3c0.1-0.1,0.3-0.2,0.4-0.3
		c-0.1-0.1-0.1-0.2-0.2-0.2c-0.1-0.1-0.1-0.2-0.2-0.2c-0.1,0.1-0.3,0.2-0.4,0.3c-0.1,0.1-0.3,0.2-0.4,0.3c-0.1,0.1-0.3,0.2-0.4,0.3
		c-0.1-0.1-0.1-0.1-0.2-0.2c-0.1,0.1-0.3,0.2-0.4,0.3s-0.3,0.2-0.4,0.3c-0.1-0.1-0.1-0.1-0.2-0.2c-0.1,0.1-0.3,0.2-0.4,0.3
		c-0.1,0.1-0.3,0.2-0.4,0.3c-0.1,0.1-0.3,0.2-0.4,0.3c-0.1,0.1-0.3,0.2-0.4,0.3c-0.1,0.1-0.3,0.2-0.4,0.3c0.1,0.1,0.1,0.1,0.2,0.2
		c0.1-0.1,0.3-0.2,0.4-0.3s0.3-0.2,0.4-0.3c0.1-0.1,0.3-0.2,0.4-0.3c0.1,0.1,0.1,0.1,0.2,0.2c0.1-0.1,0.3-0.2,0.4-0.3
		c0.1-0.1,0.3-0.2,0.4-0.3c0.1-0.1,0.3-0.2,0.4-0.3c0.1,0.1,0.1,0.1,0.2,0.2S30,26.2,30,26.3z"/>
	<path class="st0" d="M32.1,24.9c0.1-0.1,0.3-0.2,0.4-0.3c0-0.1-0.1-0.2-0.1-0.2c-0.1,0.1-0.3,0.2-0.4,0.3
		C32,24.7,32,24.8,32.1,24.9z"/>
	<path class="st0" d="M45.3,9.8c-0.2,0-0.4,0.1-0.6,0.1c-0.2,0-0.4,0.1-0.6,0.1c-0.2,0-0.4,0.1-0.6,0.1c0,0.1,0,0.2,0.1,0.3
		c0,0.1,0,0.2,0.1,0.3c0.2,0,0.4-0.1,0.6-0.1c0.2,0,0.4-0.1,0.6-0.1c0.2,0,0.4-0.1,0.6-0.1c0.2,0,0.4-0.1,0.6-0.1
		c0-0.1,0-0.2-0.1-0.3c0.2,0,0.4-0.1,0.6-0.1c0-0.1,0-0.2,0-0.3c-0.2,0-0.4,0.1-0.6,0.1C45.6,9.8,45.4,9.8,45.3,9.8z"/>
	<path class="st0" d="M43.4,9.9c0.2,0,0.4-0.1,0.6-0.1c0.2,0,0.4-0.1,0.6-0.1c0-0.1,0-0.2-0.1-0.3c0.2,0,0.4-0.1,0.6-0.1
		c0-0.1,0-0.2-0.1-0.3c0-0.1,0-0.2-0.1-0.3c0.2,0,0.4-0.1,0.6-0.1c0.2,0,0.4-0.1,0.6-0.1c0-0.1,0-0.2,0-0.3c0-0.1,0-0.2,0-0.3
		c0.2,0,0.4-0.1,0.6-0.1c0-0.1,0-0.2,0-0.3c0.2,0,0.4-0.1,0.6-0.1s0.4-0.1,0.6-0.1c0-0.1,0-0.2,0-0.3c0-0.1,0-0.2,0-0.3
		c-0.2,0-0.4,0.1-0.6,0.1C47,7,46.8,7,46.6,7.1c-0.2,0-0.4,0.1-0.6,0.1c-0.2,0-0.4,0.1-0.6,0.1c-0.2,0-0.4,0.1-0.6,0.1
		c-0.2,0-0.4,0.1-0.6,0.1c-0.2,0-0.4,0.1-0.6,0.1c-0.2,0-0.4,0.1-0.6,0.1c-0.2,0-0.4,0.1-0.6,0.1c-0.2,0-0.4,0.1-0.6,0.2
		c-0.2,0.1-0.4,0.1-0.6,0.2c-0.2,0.1-0.4,0.1-0.6,0.2c-0.2,0.1-0.4,0.1-0.6,0.2c-0.2,0.1-0.4,0.1-0.6,0.2c-0.2,0.1-0.4,0.1-0.6,0.2
		c0,0.1,0.1,0.2,0.1,0.3c-0.2,0.1-0.4,0.1-0.6,0.2c-0.2,0.1-0.4,0.1-0.6,0.2c-0.2,0.1-0.4,0.1-0.6,0.2c0-0.1-0.1-0.2-0.1-0.3
		c-0.2,0.1-0.4,0.1-0.6,0.2C36.1,9.8,36,9.9,35.8,10c-0.2,0.1-0.4,0.2-0.6,0.2c-0.2,0.1-0.4,0.2-0.6,0.2c-0.2,0.1-0.4,0.2-0.6,0.2
		c-0.2,0.1-0.4,0.2-0.6,0.3c-0.2,0.1-0.4,0.2-0.6,0.3c-0.2,0.1-0.4,0.2-0.6,0.3c-0.2,0.1-0.4,0.2-0.6,0.3c-0.2,0.1-0.4,0.2-0.6,0.3
		c-0.2,0.1-0.4,0.2-0.6,0.3c0,0.1,0.1,0.2,0.1,0.2c-0.2,0.1-0.4,0.2-0.6,0.3c-0.2,0.1-0.4,0.2-0.6,0.3c-0.2,0.1-0.4,0.2-0.6,0.3
		s-0.4,0.2-0.5,0.3c0,0.1,0.1,0.2,0.1,0.2c-0.2,0.1-0.4,0.2-0.5,0.3c-0.2,0.1-0.4,0.2-0.5,0.3c-0.2,0.1-0.4,0.2-0.5,0.3
		c-0.2,0.1-0.4,0.2-0.5,0.3c0,0.1,0.1,0.2,0.1,0.2c-0.2,0.1-0.4,0.2-0.5,0.3c-0.1-0.1-0.1-0.2-0.2-0.2c-0.2,0.1-0.4,0.2-0.5,0.4
		c-0.2,0.1-0.3,0.2-0.5,0.4c-0.2,0.1-0.3,0.2-0.5,0.4c0.1,0.1,0.1,0.1,0.2,0.2c-0.2,0.1-0.3,0.2-0.5,0.4c-0.2,0.1-0.3,0.3-0.5,0.4
		c-0.2,0.1-0.3,0.3-0.5,0.4c-0.2,0.1-0.3,0.3-0.5,0.4c-0.2,0.1-0.3,0.3-0.5,0.4c0.1,0.1,0.1,0.1,0.2,0.2c-0.2,0.1-0.3,0.3-0.5,0.4
		c-0.2,0.1-0.3,0.3-0.5,0.4c0.1,0.1,0.1,0.1,0.2,0.2c-0.2,0.1-0.3,0.3-0.5,0.4c-0.2,0.1-0.3,0.3-0.5,0.4c0.1,0.1,0.1,0.1,0.2,0.2
		c0.1,0.1,0.1,0.1,0.2,0.2c-0.2,0.1-0.3,0.3-0.5,0.4c-0.2,0.1-0.3,0.3-0.5,0.4c-0.2,0.1-0.3,0.3-0.5,0.4c-0.2,0.1-0.3,0.3-0.5,0.4
		c-0.2,0.1-0.3,0.3-0.4,0.5s-0.3,0.3-0.4,0.5c-0.1,0.2-0.3,0.3-0.4,0.5c-0.1,0.2-0.3,0.3-0.4,0.5c-0.1,0.2-0.3,0.3-0.4,0.5
		c-0.1-0.1-0.1-0.1-0.2-0.2c-0.1,0.2-0.3,0.3-0.4,0.5c-0.1,0.2-0.3,0.3-0.4,0.5c-0.1,0.2-0.3,0.3-0.4,0.5c-0.1,0.2-0.3,0.3-0.4,0.5
		c-0.1,0.2-0.3,0.3-0.4,0.5c-0.1,0.2-0.3,0.3-0.4,0.5c-0.1,0.2-0.3,0.4-0.4,0.5c-0.1,0.2-0.3,0.4-0.4,0.5c-0.1,0.2-0.3,0.4-0.4,0.5
		c0.1,0.1,0.2,0.1,0.2,0.2c-0.1,0.2-0.3,0.4-0.4,0.5c-0.1,0.2-0.2,0.4-0.4,0.6c-0.1,0.2-0.2,0.4-0.4,0.6c0.1,0.1,0.2,0.1,0.2,0.2
		c-0.1,0.2-0.2,0.4-0.4,0.6c0.1,0,0.2,0.1,0.2,0.1c-0.1,0.2-0.2,0.4-0.4,0.6c-0.1,0.2-0.2,0.4-0.3,0.6c0.1,0,0.2,0.1,0.2,0.1
		c-0.1,0.2-0.2,0.4-0.3,0.6c0.1,0,0.2,0.1,0.2,0.1c-0.1,0.2-0.2,0.4-0.3,0.6c0.1,0,0.2,0.1,0.2,0.1c-0.1,0.2-0.2,0.4-0.3,0.6
		c0.1,0,0.2,0.1,0.2,0.1c0.1,0,0.2,0.1,0.2,0.1s0.2,0.1,0.2,0.1c-0.1,0.2-0.2,0.4-0.3,0.6c-0.1,0.2-0.2,0.4-0.3,0.6
		c0.1,0,0.2,0.1,0.2,0.1c0.1,0,0.2,0.1,0.2,0.1c0.1-0.2,0.2-0.4,0.3-0.6c-0.1,0-0.2-0.1-0.2-0.1c0.1-0.2,0.2-0.4,0.3-0.6
		c0.1-0.2,0.2-0.4,0.3-0.6c0.1-0.2,0.2-0.4,0.3-0.6c0.1-0.2,0.2-0.4,0.3-0.6c0.1-0.2,0.2-0.4,0.3-0.6c-0.1,0-0.2-0.1-0.2-0.1
		c0.1-0.2,0.2-0.4,0.3-0.6c-0.1,0-0.2-0.1-0.2-0.1c0.1-0.2,0.2-0.4,0.3-0.5c0.1-0.2,0.2-0.4,0.4-0.5c0.1-0.2,0.2-0.4,0.4-0.5
		c-0.1-0.1-0.2-0.1-0.2-0.2c0.1-0.2,0.2-0.4,0.4-0.5c0.1-0.2,0.2-0.4,0.4-0.5c0.1,0.1,0.1,0.1,0.2,0.2c0.1-0.2,0.2-0.3,0.4-0.5
		c0.1-0.2,0.3-0.3,0.4-0.5c0.1,0.1,0.1,0.1,0.2,0.2c0.1,0.1,0.1,0.1,0.2,0.2c-0.1,0.2-0.3,0.3-0.4,0.5c0.1,0.1,0.1,0.1,0.2,0.2
		c0.1,0.1,0.1,0.1,0.2,0.2c0.1,0.1,0.1,0.1,0.2,0.2c0.1-0.2,0.2-0.3,0.4-0.5c0.1,0.1,0.1,0.1,0.2,0.2c0.1,0.1,0.1,0.1,0.2,0.2
		c0.1,0.1,0.1,0.1,0.2,0.2c-0.1,0.2-0.2,0.3-0.4,0.5c0.1,0.1,0.1,0.1,0.2,0.2c0.1,0.1,0.1,0.1,0.2,0.2c-0.1,0.2-0.2,0.3-0.4,0.5
		c0.1,0.1,0.1,0.1,0.2,0.2c-0.1,0.2-0.2,0.3-0.3,0.5c0.1,0.1,0.2,0.1,0.2,0.2c0.1,0.1,0.2,0.1,0.2,0.2c0.1,0.1,0.2,0.1,0.2,0.2
		c0.1,0.1,0.2,0.1,0.2,0.2c0.1,0.1,0.2,0.1,0.2,0.2c0.1-0.2,0.2-0.3,0.3-0.5c0.1,0.1,0.1,0.1,0.2,0.2c0.1-0.2,0.2-0.3,0.3-0.5
		c0.1,0.1,0.1,0.1,0.2,0.2c0.1,0.1,0.1,0.1,0.2,0.2c0.1,0.1,0.1,0.1,0.2,0.2c0.1,0.1,0.1,0.1,0.2,0.2c0.1,0.1,0.1,0.1,0.2,0.2
		c0.1-0.1,0.2-0.3,0.3-0.4c0.1,0.1,0.1,0.1,0.2,0.2c0.1-0.1,0.2-0.3,0.3-0.4c0.1,0.1,0.1,0.1,0.2,0.2c0.1-0.1,0.2-0.3,0.3-0.4
		c0.1-0.1,0.2-0.3,0.3-0.4c0.1,0.1,0.1,0.1,0.2,0.2c0.1,0.1,0.1,0.1,0.2,0.2c0.1-0.1,0.2-0.3,0.3-0.4c0.1,0.1,0.1,0.1,0.2,0.2
		c0.1-0.1,0.2-0.3,0.3-0.4c0.1,0.1,0.1,0.1,0.2,0.2c0.1-0.1,0.2-0.3,0.3-0.4c0.1,0.1,0.1,0.1,0.2,0.2c0.1-0.1,0.2-0.3,0.3-0.4
		c0.1-0.1,0.2-0.3,0.4-0.4c0.1-0.1,0.2-0.3,0.4-0.4c0.1,0.1,0.1,0.1,0.2,0.2c0.1-0.1,0.2-0.2,0.4-0.4c0.1-0.1,0.2-0.2,0.4-0.4
		c0.1,0.1,0.1,0.1,0.2,0.2c0.1-0.1,0.2-0.2,0.4-0.4c0.1-0.1,0.2-0.2,0.4-0.3c0.1,0.1,0.1,0.1,0.2,0.2c0.1-0.1,0.2-0.2,0.4-0.3
		c0.1,0.1,0.1,0.1,0.2,0.2c0.1-0.1,0.2-0.2,0.4-0.3c0.1,0.1,0.1,0.1,0.2,0.2c0.1-0.1,0.2-0.2,0.4-0.3c0.1,0.1,0.1,0.1,0.2,0.2
		c0.1-0.1,0.2-0.2,0.4-0.3c0.1-0.1,0.2-0.2,0.4-0.3c0.1-0.1,0.2-0.2,0.4-0.3c0.1,0.1,0.1,0.1,0.2,0.2c0.1,0.1,0.1,0.1,0.2,0.2
		c0.1,0.1,0.1,0.1,0.2,0.2c-0.1,0.1-0.2,0.2-0.4,0.3c0.1,0.1,0.1,0.1,0.2,0.2c-0.1,0.1-0.2,0.2-0.4,0.3c0.1,0.1,0.1,0.1,0.2,0.2
		s0.1,0.1,0.2,0.2c0.1,0.1,0.1,0.1,0.2,0.2c0.1,0.1,0.1,0.1,0.2,0.2c0.1,0.1,0.1,0.1,0.2,0.2c0.1,0.1,0.1,0.1,0.2,0.2
		c0.1-0.1,0.2-0.2,0.3-0.3c0.1,0.1,0.1,0.1,0.2,0.2c0.1-0.1,0.2-0.2,0.3-0.3c0.1,0.1,0.1,0.1,0.2,0.2c0.1,0.1,0.1,0.1,0.2,0.2
		c0.1-0.1,0.2-0.2,0.3-0.3c0.1,0.1,0.1,0.1,0.2,0.2c0.1,0.1,0.1,0.1,0.2,0.2c0.1-0.1,0.2-0.2,0.3-0.3c0.1,0.1,0.1,0.1,0.2,0.2
		c0.1-0.1,0.2-0.2,0.3-0.3c0.1,0.1,0.1,0.1,0.2,0.2c0.1-0.1,0.2-0.2,0.3-0.3c0.1,0.1,0.1,0.1,0.2,0.2c0.1-0.1,0.2-0.2,0.3-0.2
		c0.1,0.1,0.1,0.1,0.2,0.2c0.1-0.1,0.2-0.2,0.3-0.2c0.1,0.1,0.1,0.2,0.2,0.2s0.1,0.2,0.2,0.2c0.1,0.1,0.1,0.2,0.2,0.2
		c0.1,0.1,0.1,0.2,0.2,0.2s0.1,0.2,0.2,0.2s0.1,0.2,0.2,0.2c0.1,0.1,0.1,0.2,0.2,0.2c0.1,0.1,0.1,0.2,0.2,0.2
		c0.1,0.1,0.1,0.2,0.2,0.2c0.1,0.1,0.1,0.2,0.2,0.2c0.1,0.1,0.1,0.2,0.2,0.2c0.1,0.1,0.1,0.2,0.2,0.2c0.1,0.1,0.1,0.2,0.2,0.2
		c0.1-0.1,0.2-0.1,0.3-0.2c0.1,0.1,0.1,0.2,0.2,0.2c0.1,0.1,0.1,0.2,0.2,0.2c0.1,0.1,0.1,0.2,0.2,0.2c0.1,0.1,0.1,0.2,0.2,0.2
		c0.1,0.1,0.1,0.2,0.2,0.2c0.1-0.1,0.2-0.1,0.3-0.2c0.1,0.1,0.1,0.2,0.2,0.2c0.1,0.1,0.1,0.2,0.2,0.2c0.1,0.1,0.1,0.2,0.2,0.2
		c0.1-0.1,0.2-0.1,0.3-0.2c0,0.1,0.1,0.2,0.1,0.2c0.1-0.1,0.2-0.1,0.3-0.2c0,0.1,0.1,0.2,0.1,0.2c0.1-0.1,0.2-0.1,0.3-0.2
		s0.2-0.1,0.3-0.2c0,0.1,0.1,0.2,0.1,0.2c0.1-0.1,0.2-0.1,0.3-0.2c0.1-0.1,0.2-0.1,0.3-0.2c0.1-0.1,0.2-0.1,0.3-0.2
		c0.1-0.1,0.2-0.1,0.3-0.2c0-0.1-0.1-0.2-0.1-0.2c-0.1,0.1-0.2,0.1-0.3,0.2c0-0.1-0.1-0.2-0.1-0.2c-0.1,0.1-0.2,0.1-0.3,0.2
		c0-0.1-0.1-0.2-0.1-0.2c-0.1,0.1-0.2,0.1-0.3,0.2c0-0.1-0.1-0.2-0.1-0.2c0.1-0.1,0.2-0.1,0.3-0.2c0-0.1-0.1-0.2-0.1-0.2
		c0-0.1-0.1-0.2-0.1-0.2c-0.1,0.1-0.2,0.1-0.3,0.2c0-0.1-0.1-0.2-0.1-0.2c0-0.1-0.1-0.2-0.1-0.2c0-0.1-0.1-0.2-0.1-0.2
		c0.1-0.1,0.2-0.1,0.3-0.2c0-0.1-0.1-0.2-0.1-0.2c0-0.1-0.1-0.2-0.1-0.2c0.1-0.1,0.2-0.1,0.3-0.2c0-0.1-0.1-0.2-0.1-0.2
		c0.1-0.1,0.2-0.1,0.3-0.2c0-0.1-0.1-0.2-0.1-0.2c0-0.1-0.1-0.2-0.1-0.2c0.1-0.1,0.2-0.1,0.3-0.2c0.1-0.1,0.2-0.1,0.3-0.2
		c0-0.1-0.1-0.2-0.1-0.2c0-0.1-0.1-0.2-0.1-0.2c0.1-0.1,0.2-0.1,0.3-0.2c0-0.1-0.1-0.2-0.1-0.2c0-0.1-0.1-0.2-0.1-0.2
		c0.1-0.1,0.2-0.1,0.4-0.2c0-0.1-0.1-0.2-0.1-0.2c0-0.1-0.1-0.2-0.1-0.2c0-0.1-0.1-0.2-0.1-0.2c0.1-0.1,0.2-0.1,0.4-0.2
		c0-0.1-0.1-0.2-0.1-0.3c0.1-0.1,0.2-0.1,0.4-0.2c0.1-0.1,0.2-0.1,0.4-0.2c0-0.1-0.1-0.2-0.1-0.3c0.1-0.1,0.2-0.1,0.4-0.2
		c0-0.1-0.1-0.2-0.1-0.3c0-0.1-0.1-0.2-0.1-0.3c0.1-0.1,0.3-0.1,0.4-0.2c0-0.1-0.1-0.2-0.1-0.3c0-0.1-0.1-0.2-0.1-0.3
		c0-0.1-0.1-0.2-0.1-0.3c0-0.1-0.1-0.2-0.1-0.3c0-0.1-0.1-0.2-0.1-0.3c0.1-0.1,0.3-0.1,0.4-0.2c0-0.1-0.1-0.2-0.1-0.3
		c0.1-0.1,0.3-0.1,0.4-0.2c0-0.1-0.1-0.2-0.1-0.3c0-0.1-0.1-0.2-0.1-0.3c0-0.1-0.1-0.2-0.1-0.3c0-0.1-0.1-0.2-0.1-0.3
		c-0.1,0.1-0.3,0.1-0.4,0.2c-0.1,0.1-0.3,0.1-0.4,0.2c0-0.1-0.1-0.2-0.1-0.3c-0.1,0.1-0.3,0.1-0.4,0.2c0-0.1-0.1-0.2-0.1-0.3
		c-0.1,0.1-0.3,0.1-0.4,0.2c-0.1,0.1-0.3,0.1-0.4,0.2c-0.1,0.1-0.3,0.1-0.4,0.2c0-0.1-0.1-0.2-0.1-0.3c-0.1,0.1-0.3,0.1-0.4,0.2
		c-0.1,0.1-0.3,0.1-0.4,0.2c-0.1,0.1-0.3,0.1-0.4,0.2c0-0.1-0.1-0.2-0.1-0.2c0-0.1-0.1-0.2-0.1-0.2c-0.1,0.1-0.3,0.1-0.4,0.2
		c0-0.1-0.1-0.2-0.1-0.2c0-0.1-0.1-0.2-0.1-0.2c-0.1,0.1-0.3,0.1-0.4,0.2c-0.1,0.1-0.3,0.1-0.4,0.2c0-0.1-0.1-0.2-0.1-0.2
		c-0.1,0.1-0.3,0.2-0.4,0.2c-0.1,0.1-0.3,0.2-0.4,0.2c0-0.1-0.1-0.2-0.1-0.2c-0.1,0.1-0.3,0.2-0.4,0.2c0-0.1-0.1-0.2-0.1-0.2
		c-0.1,0.1-0.3,0.2-0.4,0.2c0-0.1-0.1-0.2-0.1-0.2c-0.1,0.1-0.3,0.2-0.4,0.3c-0.1,0.1-0.3,0.2-0.4,0.3c-0.1,0.1-0.3,0.2-0.4,0.3
		c-0.1,0.1-0.3,0.2-0.4,0.3c-0.1-0.1-0.1-0.2-0.2-0.2c-0.1,0.1-0.3,0.2-0.4,0.3c-0.1,0.1-0.3,0.2-0.4,0.3c-0.1,0.1-0.3,0.2-0.4,0.3
		c-0.1,0.1-0.3,0.2-0.4,0.3c0.1,0.1,0.1,0.1,0.2,0.2c-0.1,0.1-0.3,0.2-0.4,0.3c0.1,0.1,0.1,0.1,0.2,0.2c-0.1,0.1-0.3,0.2-0.4,0.3
		c-0.1,0.1-0.3,0.2-0.4,0.3c-0.1,0.1-0.3,0.2-0.4,0.3c-0.1,0.1-0.3,0.2-0.4,0.3c-0.1-0.1-0.1-0.1-0.2-0.2c-0.1-0.1-0.1-0.1-0.2-0.2
		c-0.1-0.1-0.1-0.1-0.2-0.2c-0.1-0.1-0.1-0.1-0.2-0.2c-0.1,0.1-0.3,0.2-0.4,0.3c-0.1-0.1-0.1-0.1-0.2-0.2c-0.1,0.1-0.3,0.2-0.4,0.3
		c-0.1-0.1-0.1-0.1-0.2-0.2c-0.1-0.1-0.1-0.1-0.2-0.2c-0.1-0.1-0.1-0.1-0.2-0.2c-0.1,0.1-0.3,0.2-0.4,0.4c-0.1,0.1-0.3,0.2-0.4,0.4
		c-0.1,0.1-0.3,0.2-0.4,0.4c0.1,0.1,0.1,0.1,0.2,0.2c-0.1,0.1-0.2,0.2-0.4,0.4c0.1,0.1,0.1,0.1,0.2,0.2c-0.1,0.1-0.2,0.2-0.4,0.4
		C25.1,30.1,25.1,30,25,30c-0.1,0.1-0.2,0.3-0.4,0.4c-0.1-0.1-0.1-0.1-0.2-0.2c-0.1-0.1-0.1-0.1-0.2-0.2c-0.1-0.1-0.1-0.1-0.2-0.2
		c0.1-0.1,0.2-0.3,0.4-0.4c-0.1-0.1-0.1-0.1-0.2-0.2c-0.1-0.1-0.1-0.1-0.2-0.2c0.1-0.1,0.3-0.3,0.4-0.4c-0.1-0.1-0.1-0.1-0.2-0.2
		c0.1-0.1,0.3-0.3,0.4-0.4c0.1-0.1,0.3-0.3,0.4-0.4c0.1-0.1,0.3-0.2,0.4-0.4c0.1-0.1,0.3-0.2,0.4-0.4c-0.1-0.1-0.1-0.1-0.2-0.2
		c0.1-0.1,0.3-0.2,0.4-0.4s0.3-0.2,0.4-0.4c0.1,0.1,0.1,0.1,0.2,0.2c0.1-0.1,0.3-0.2,0.4-0.3c0.1,0.1,0.1,0.1,0.2,0.2
		c0.1,0.1,0.1,0.1,0.2,0.2c0.1-0.1,0.3-0.2,0.4-0.3c0.1,0.1,0.1,0.1,0.2,0.2c0.1-0.1,0.3-0.2,0.4-0.3c-0.1-0.1-0.1-0.1-0.2-0.2
		c-0.1-0.1-0.1-0.1-0.2-0.2c-0.1-0.1-0.1-0.1-0.2-0.2c-0.1-0.1-0.1-0.1-0.2-0.2s-0.1-0.1-0.2-0.2c0.1-0.1,0.3-0.2,0.4-0.3
		c-0.1-0.1-0.1-0.1-0.2-0.2c0.1-0.1,0.3-0.2,0.4-0.3c0.1-0.1,0.3-0.2,0.4-0.3c-0.1-0.1-0.1-0.1-0.2-0.2c0.1-0.1,0.3-0.2,0.4-0.3
		c-0.1-0.1-0.1-0.1-0.2-0.2c0.1-0.1,0.3-0.2,0.4-0.3c-0.1-0.1-0.1-0.2-0.2-0.2c-0.1-0.1-0.1-0.2-0.2-0.2c0.2-0.1,0.3-0.2,0.5-0.3
		c-0.1-0.1-0.1-0.2-0.2-0.2c0.2-0.1,0.3-0.2,0.5-0.3c0.2-0.1,0.3-0.2,0.5-0.3c0-0.1-0.1-0.2-0.1-0.2c0.2-0.1,0.3-0.2,0.5-0.3
		c0-0.1-0.1-0.2-0.1-0.2c0.2-0.1,0.3-0.2,0.5-0.3c0.2-0.1,0.3-0.2,0.5-0.3c0.2-0.1,0.3-0.2,0.5-0.3c0.2-0.1,0.3-0.2,0.5-0.3
		c0-0.1-0.1-0.2-0.1-0.2c0.2-0.1,0.3-0.2,0.5-0.3c0.2-0.1,0.3-0.2,0.5-0.3c0-0.1-0.1-0.2-0.1-0.2c0-0.1-0.1-0.2-0.1-0.2
		c0.2-0.1,0.3-0.2,0.5-0.3c0,0.1,0.1,0.2,0.1,0.2c0.2-0.1,0.3-0.2,0.5-0.3c0.2-0.1,0.3-0.2,0.5-0.2c0.2-0.1,0.3-0.2,0.5-0.2
		c0-0.1-0.1-0.2-0.1-0.2c0-0.1-0.1-0.2-0.1-0.2c0-0.1-0.1-0.2-0.1-0.2c0-0.1-0.1-0.2-0.1-0.2c0-0.1-0.1-0.2-0.1-0.2
		c0-0.1-0.1-0.2-0.1-0.2c-0.2,0.1-0.3,0.2-0.5,0.2c0-0.1-0.1-0.2-0.1-0.2c0-0.1-0.1-0.2-0.1-0.2c-0.2,0.1-0.4,0.2-0.5,0.3
		c0-0.1-0.1-0.2-0.1-0.2c-0.2,0.1-0.4,0.2-0.5,0.3c-0.2,0.1-0.3,0.2-0.5,0.3c-0.2,0.1-0.3,0.2-0.5,0.3c0-0.1-0.1-0.2-0.1-0.2
		c-0.2,0.1-0.3,0.2-0.5,0.3c-0.2,0.1-0.3,0.2-0.5,0.3c-0.2,0.1-0.3,0.2-0.5,0.3c-0.2,0.1-0.3,0.2-0.5,0.3c0,0.1,0.1,0.2,0.1,0.2
		c-0.2,0.1-0.3,0.2-0.5,0.3c0,0.1,0.1,0.2,0.1,0.2c0,0.1,0.1,0.2,0.1,0.2c-0.2,0.1-0.3,0.2-0.5,0.3c0,0.1,0.1,0.2,0.1,0.2
		c-0.2,0.1-0.3,0.2-0.5,0.3c-0.2,0.1-0.3,0.2-0.5,0.3c-0.2,0.1-0.3,0.2-0.5,0.3c-0.2,0.1-0.3,0.2-0.5,0.3c-0.1-0.1-0.1-0.1-0.2-0.2
		c-0.2,0.1-0.3,0.2-0.5,0.3c-0.1-0.1-0.1-0.1-0.2-0.2c-0.2,0.1-0.3,0.2-0.5,0.4c-0.1-0.1-0.1-0.1-0.2-0.2c0.2-0.1,0.3-0.2,0.5-0.4
		c-0.1-0.1-0.1-0.1-0.2-0.2c0.2-0.1,0.3-0.2,0.5-0.4c0.2-0.1,0.3-0.2,0.5-0.3c-0.1-0.1-0.1-0.2-0.2-0.2c0.2-0.1,0.3-0.2,0.5-0.3
		c0.2-0.1,0.3-0.2,0.5-0.3c0.2-0.1,0.3-0.2,0.5-0.3c0,0.1,0.1,0.2,0.1,0.2c0.2-0.1,0.3-0.2,0.5-0.3c0-0.1-0.1-0.2-0.1-0.2
		c0.2-0.1,0.3-0.2,0.5-0.3c0-0.1-0.1-0.2-0.1-0.2c0-0.1-0.1-0.2-0.1-0.2c0.2-0.1,0.3-0.2,0.5-0.3c0.2-0.1,0.3-0.2,0.5-0.3
		c0-0.1-0.1-0.2-0.1-0.2c0.2-0.1,0.4-0.2,0.5-0.3c0,0.1,0.1,0.2,0.1,0.2c0,0.1,0.1,0.2,0.1,0.2c-0.2,0.1-0.3,0.2-0.5,0.3
		c0,0.1,0.1,0.2,0.1,0.2c0.2-0.1,0.3-0.2,0.5-0.3c0.2-0.1,0.3-0.2,0.5-0.3c0.2-0.1,0.4-0.2,0.5-0.3c0,0.1,0.1,0.2,0.1,0.2
		c0.2-0.1,0.4-0.2,0.5-0.3c0.2-0.1,0.4-0.2,0.5-0.3c0.2-0.1,0.4-0.2,0.5-0.3c0-0.1-0.1-0.2-0.1-0.2c0-0.1-0.1-0.2-0.1-0.2
		c0.2-0.1,0.4-0.2,0.5-0.3c0.2-0.1,0.4-0.2,0.5-0.3c0-0.1-0.1-0.2-0.1-0.3c0-0.1-0.1-0.2-0.1-0.3c-0.2,0.1-0.4,0.2-0.5,0.3
		c0-0.1-0.1-0.2-0.1-0.2c0-0.1-0.1-0.2-0.1-0.2c-0.2,0.1-0.4,0.2-0.6,0.3c-0.2,0.1-0.4,0.2-0.5,0.3c0-0.1-0.1-0.2-0.1-0.2
		c-0.2,0.1-0.4,0.2-0.5,0.3c0-0.1-0.1-0.2-0.1-0.2c0.2-0.1,0.4-0.2,0.6-0.3c0.2-0.1,0.4-0.2,0.6-0.3c0-0.1-0.1-0.2-0.1-0.2
		c0.2-0.1,0.4-0.2,0.6-0.3c0.2-0.1,0.4-0.2,0.6-0.3c0,0.1,0.1,0.2,0.1,0.3c0.2-0.1,0.4-0.2,0.6-0.3c0.2-0.1,0.4-0.2,0.6-0.2
		c0.2-0.1,0.4-0.2,0.6-0.2s0.4-0.2,0.6-0.2c0.2-0.1,0.4-0.2,0.6-0.2c0,0.1,0.1,0.2,0.1,0.3c0,0.1,0.1,0.2,0.1,0.3
		c-0.2,0.1-0.4,0.1-0.6,0.2c0,0.1,0.1,0.2,0.1,0.3c0,0.1,0.1,0.2,0.1,0.3c0,0.1,0.1,0.2,0.1,0.3c-0.2,0.1-0.4,0.1-0.6,0.2
		c0,0.1,0.1,0.2,0.1,0.3c0,0.1,0.1,0.2,0.1,0.3c0.2-0.1,0.4-0.1,0.5-0.2c0,0.1,0.1,0.2,0.1,0.3c0,0.1,0.1,0.2,0.1,0.3
		c0.2-0.1,0.4-0.1,0.5-0.2c0.2-0.1,0.4-0.1,0.5-0.2c0.2-0.1,0.4-0.1,0.5-0.2c0.2-0.1,0.4-0.1,0.6-0.2c0-0.1-0.1-0.2-0.1-0.3
		c0.2-0.1,0.4-0.1,0.6-0.2c0-0.1-0.1-0.2-0.1-0.3c0.2-0.1,0.4-0.1,0.6-0.2c0-0.1-0.1-0.2-0.1-0.3c0.2-0.1,0.4-0.1,0.6-0.2
		c0.2-0.1,0.4-0.1,0.6-0.2c0.2-0.1,0.4-0.1,0.6-0.2c0-0.1-0.1-0.2-0.1-0.3c0.2-0.1,0.4-0.1,0.6-0.2c0.2-0.1,0.4-0.1,0.6-0.2
		c0-0.1,0-0.2-0.1-0.3c0.2,0,0.4-0.1,0.6-0.1C43.1,10,43.2,10,43.4,9.9z"/>
	<path class="st0" d="M53.5,7.5c0.2,0,0.4,0,0.6,0c0.2,0,0.4,0,0.6,0c0-0.1,0-0.2,0-0.3c0.2,0,0.4,0,0.6,0c0.2,0,0.4,0,0.6,0
		c0.2,0,0.4,0,0.6,0c0.2,0,0.4,0,0.6,0c0-0.1,0-0.2,0-0.3c-0.2,0-0.4,0-0.6,0c0-0.1,0-0.2,0-0.3c-0.2,0-0.4,0-0.6,0s-0.4,0-0.6,0
		c-0.2,0-0.4,0-0.6,0c-0.2,0-0.4,0-0.6,0c-0.2,0-0.4,0-0.6,0s-0.4,0-0.6,0c0,0.1,0,0.2,0,0.3c0,0.1,0,0.2,0,0.3c0.2,0,0.4,0,0.6,0
		C53.5,7.3,53.5,7.4,53.5,7.5z"/>
	<path class="st0" d="M78.4,39.3c-0.1-0.1-0.2-0.2-0.3-0.3C78,39,78,39.1,77.9,39.2c-0.1,0.1-0.1,0.1-0.2,0.2
		c0.1,0.1,0.2,0.2,0.3,0.3c0.1,0.1,0.2,0.2,0.2,0.3c0.1-0.1,0.1-0.1,0.2-0.2c0.1,0.1,0.2,0.2,0.2,0.3c0.1-0.1,0.1-0.1,0.2-0.2
		c-0.1-0.1-0.2-0.2-0.3-0.3C78.5,39.5,78.5,39.4,78.4,39.3z"/>
	<path class="st0" d="M83.6,45c0.1,0,0.2-0.1,0.2-0.1c-0.1-0.1-0.1-0.3-0.2-0.4c-0.1,0-0.2,0.1-0.2,0.1c-0.1,0-0.2,0.1-0.2,0.1
		c-0.1-0.1-0.1-0.2-0.2-0.4c-0.1,0-0.2,0.1-0.2,0.1c-0.1-0.1-0.1-0.2-0.2-0.4c-0.1,0-0.2,0.1-0.2,0.1c-0.1-0.1-0.1-0.2-0.2-0.4
		c-0.1,0-0.2,0.1-0.2,0.1c-0.1-0.1-0.1-0.2-0.2-0.3c-0.1,0-0.2,0.1-0.2,0.1c-0.1-0.1-0.1-0.2-0.2-0.3c-0.1-0.1-0.1-0.2-0.2-0.3
		c-0.1,0.1-0.2,0.1-0.2,0.2c-0.1-0.1-0.1-0.2-0.2-0.3c-0.1-0.1-0.1-0.2-0.2-0.3c-0.1,0.1-0.2,0.1-0.2,0.2c-0.1-0.1-0.1-0.2-0.2-0.3
		c-0.1,0.1-0.2,0.1-0.2,0.2c0.1,0.1,0.1,0.2,0.2,0.3c0.1,0.1,0.1,0.2,0.2,0.3s0.1,0.2,0.2,0.3c0.1-0.1,0.2-0.1,0.2-0.2
		c0.1,0.1,0.1,0.2,0.2,0.3c0.1,0.1,0.1,0.2,0.2,0.3c0.1,0,0.2-0.1,0.2-0.1c0.1,0.1,0.1,0.2,0.2,0.3c0.1,0.1,0.1,0.2,0.2,0.3
		c0.1,0,0.2-0.1,0.2-0.1c0.1,0.1,0.1,0.2,0.2,0.4c0.1,0.1,0.1,0.2,0.2,0.4c0.1,0,0.2-0.1,0.2-0.1c0.1,0.1,0.1,0.2,0.2,0.4
		c0.1,0,0.2-0.1,0.2-0.1c0.1,0.1,0.1,0.2,0.2,0.4c0.1,0,0.2-0.1,0.2-0.1s0.2-0.1,0.2-0.1c0.1,0,0.2-0.1,0.2-0.1
		C83.8,45.2,83.7,45.1,83.6,45z"/>
	<path class="st0" d="M82.3,40.8c0.1-0.1,0.2-0.1,0.2-0.2c0.1,0.1,0.2,0.2,0.2,0.4c0.1-0.1,0.2-0.1,0.2-0.2c0.1-0.1,0.2-0.1,0.2-0.2
		c-0.1-0.1-0.2-0.2-0.2-0.4c0.1-0.1,0.2-0.1,0.2-0.2c0.1-0.1,0.2-0.1,0.2-0.2c-0.1-0.1-0.2-0.2-0.3-0.4c0.1-0.1,0.1-0.1,0.2-0.2
		c0.1-0.1,0.1-0.1,0.2-0.2c-0.1-0.1-0.2-0.2-0.3-0.4c0.1-0.1,0.1-0.1,0.2-0.2c0.1-0.1,0.1-0.1,0.2-0.2c0.1-0.1,0.1-0.1,0.2-0.2
		c-0.1-0.1-0.2-0.2-0.3-0.4c0.1-0.1,0.1-0.1,0.2-0.2c0.1-0.1,0.1-0.1,0.2-0.2c-0.1-0.1-0.2-0.2-0.3-0.4c0.1-0.1,0.1-0.1,0.2-0.2
		c-0.1-0.1-0.2-0.2-0.3-0.4c-0.1,0.1-0.1,0.1-0.2,0.2c-0.1,0.1-0.1,0.1-0.2,0.2c-0.1-0.1-0.2-0.2-0.3-0.4c-0.1,0.1-0.1,0.1-0.2,0.2
		c-0.1,0.1-0.1,0.1-0.2,0.2c-0.1-0.1-0.2-0.2-0.3-0.3c0.1-0.1,0.1-0.1,0.2-0.2c-0.1-0.1-0.2-0.2-0.3-0.3c0.1-0.1,0.1-0.1,0.2-0.2
		c0.1,0.1,0.2,0.2,0.3,0.3c0.1-0.1,0.1-0.1,0.2-0.2c-0.1-0.1-0.2-0.2-0.3-0.3c-0.1-0.1-0.2-0.2-0.3-0.3c0.1-0.1,0.1-0.1,0.2-0.2
		c-0.1-0.1-0.2-0.2-0.3-0.3c-0.1-0.1-0.2-0.2-0.3-0.3c-0.1-0.1-0.2-0.2-0.3-0.3c-0.1,0.1-0.1,0.1-0.2,0.2c-0.1,0.1-0.1,0.1-0.2,0.2
		c-0.1-0.1-0.2-0.2-0.3-0.3c-0.1-0.1-0.2-0.2-0.3-0.3c-0.1-0.1-0.2-0.2-0.3-0.3c-0.1,0.1-0.1,0.1-0.2,0.2c-0.1-0.1-0.2-0.2-0.3-0.3
		c-0.1,0.1-0.1,0.1-0.2,0.2c-0.1-0.1-0.2-0.2-0.3-0.3c-0.1-0.1-0.2-0.2-0.3-0.3c-0.1,0.1-0.1,0.1-0.2,0.2c-0.1,0.1-0.1,0.1-0.2,0.2
		c-0.1-0.1-0.2-0.2-0.3-0.3c-0.1-0.1-0.2-0.2-0.3-0.3c-0.1-0.1-0.2-0.2-0.3-0.3c-0.1,0.1-0.1,0.1-0.2,0.2c-0.1-0.1-0.2-0.2-0.3-0.3
		c-0.1-0.1-0.2-0.2-0.3-0.3c-0.1,0.1-0.1,0.1-0.2,0.2c-0.1,0.1-0.1,0.1-0.2,0.2c-0.1,0.1-0.1,0.1-0.2,0.2c-0.1-0.1-0.2-0.2-0.3-0.3
		C76,33,76,33.1,75.9,33.2c-0.1,0.1-0.1,0.1-0.2,0.2c-0.1,0.1-0.1,0.1-0.2,0.2c-0.1,0.1-0.1,0.1-0.2,0.2c-0.1,0.1-0.1,0.1-0.2,0.2
		c-0.1,0.1-0.1,0.1-0.2,0.2c-0.1,0.1-0.1,0.1-0.2,0.2c0.1,0.1,0.2,0.2,0.3,0.2c0.1,0.1,0.2,0.2,0.3,0.2c0.1,0.1,0.2,0.2,0.3,0.2
		c0.1,0.1,0.2,0.2,0.3,0.3c0.1,0.1,0.2,0.2,0.3,0.3c0.1-0.1,0.1-0.1,0.2-0.2c0.1,0.1,0.2,0.2,0.3,0.3c0.1,0.1,0.2,0.2,0.3,0.3
		c0.1,0.1,0.2,0.2,0.3,0.3c0.1-0.1,0.1-0.1,0.2-0.2c0.1,0.1,0.2,0.2,0.3,0.3c0.1,0.1,0.2,0.2,0.3,0.3c0.1,0.1,0.2,0.2,0.3,0.3
		c-0.1,0.1-0.1,0.1-0.2,0.2c-0.1,0.1-0.1,0.1-0.2,0.2c0.1,0.1,0.2,0.2,0.3,0.3c-0.1,0.1-0.1,0.1-0.2,0.2c0.1,0.1,0.2,0.2,0.3,0.3
		c-0.1,0.1-0.1,0.1-0.2,0.2c0.1,0.1,0.2,0.2,0.3,0.3c-0.1,0.1-0.1,0.1-0.2,0.2c0.1,0.1,0.2,0.2,0.3,0.3c0.1,0.1,0.2,0.2,0.3,0.3
		c0.1,0.1,0.2,0.2,0.3,0.3c0.1-0.1,0.1-0.1,0.2-0.2c0.1,0.1,0.2,0.2,0.3,0.3c0.1,0.1,0.2,0.2,0.2,0.3s0.2,0.2,0.2,0.3
		c0.1-0.1,0.1-0.1,0.2-0.2c0.1,0.1,0.2,0.2,0.2,0.3c0.1-0.1,0.1-0.1,0.2-0.2c0.1-0.1,0.1-0.1,0.2-0.2c0.1,0.1,0.2,0.2,0.2,0.3
		c0.1,0.1,0.2,0.2,0.2,0.3c0.1-0.1,0.1-0.1,0.2-0.2c0.1-0.1,0.1-0.1,0.2-0.2c0.1,0.1,0.2,0.2,0.2,0.3C82.2,40.9,82.3,40.8,82.3,40.8
		z"/>
	<path class="st0" d="M85.9,43.3c-0.1-0.1-0.1-0.3-0.2-0.4c-0.1,0-0.2,0.1-0.2,0.1c0.1,0.1,0.1,0.3,0.2,0.4
		C85.7,43.4,85.8,43.3,85.9,43.3z"/>
	<path class="st0" d="M63.7,24.4c-0.1,0-0.3-0.1-0.4-0.1c0,0.1,0,0.2-0.1,0.3c-0.1,0-0.3-0.1-0.4-0.1c0,0.1,0,0.2-0.1,0.3
		c-0.1,0-0.3-0.1-0.4-0.1c-0.1,0-0.3-0.1-0.4-0.1c0,0.1,0,0.2-0.1,0.3c0,0.1,0,0.2-0.1,0.3c0,0.1,0,0.2-0.1,0.3c0,0.1,0,0.2-0.1,0.3
		c-0.1,0-0.3,0-0.4-0.1c0,0.1,0,0.2,0,0.3c0,0.1,0,0.2,0,0.3c0,0.1,0,0.2,0,0.3c0.1,0,0.3,0,0.4,0.1c0,0.1,0,0.2-0.1,0.3
		c0.1,0,0.3,0,0.4,0.1c0.1,0,0.3,0.1,0.4,0.1c0-0.1,0-0.2,0.1-0.3c0.1,0,0.3,0.1,0.4,0.1c0-0.1,0-0.2,0.1-0.3c0-0.1,0-0.2,0.1-0.3
		c0-0.1,0-0.2,0.1-0.3c0.1,0,0.3,0.1,0.4,0.1c0-0.1,0-0.2,0.1-0.3c0-0.1,0-0.2,0.1-0.3c0-0.1,0-0.2,0.1-0.3c0.1,0,0.3,0.1,0.4,0.1
		c0-0.1,0-0.2,0.1-0.3c0-0.1,0-0.2,0.1-0.3c-0.1,0-0.3-0.1-0.4-0.1C63.7,24.6,63.7,24.5,63.7,24.4z"/>
	<path class="st0" d="M78.3,30.8c0.1,0.1,0.2,0.2,0.3,0.3c0.1,0.1,0.2,0.2,0.3,0.3c0.1,0.1,0.2,0.2,0.3,0.3
		c-0.1,0.1-0.1,0.1-0.2,0.2c0.1,0.1,0.2,0.2,0.3,0.3c0.1,0.1,0.2,0.2,0.3,0.3c0.1,0.1,0.2,0.2,0.3,0.3C80.1,32.9,80,32.9,80,33
		c0.1,0.1,0.2,0.2,0.3,0.3c0.1,0.1,0.2,0.2,0.3,0.3c0.1-0.1,0.1-0.1,0.2-0.2c0.1,0.1,0.2,0.2,0.3,0.3c0.1,0.1,0.2,0.2,0.3,0.3
		c0.1-0.1,0.1-0.1,0.2-0.2c0.1-0.1,0.1-0.1,0.2-0.2c-0.1-0.1-0.2-0.2-0.3-0.3c-0.1-0.1-0.2-0.2-0.3-0.3c-0.1-0.1-0.2-0.2-0.3-0.3
		c-0.1-0.1-0.2-0.2-0.3-0.3c-0.1-0.1-0.2-0.2-0.3-0.3c-0.1-0.1-0.2-0.2-0.3-0.3c-0.1-0.1-0.2-0.2-0.3-0.3c0.1-0.1,0.1-0.1,0.2-0.2
		c-0.1-0.1-0.2-0.2-0.3-0.3c-0.1-0.1-0.2-0.2-0.4-0.3c-0.1-0.1-0.2-0.2-0.4-0.3c-0.1-0.1-0.2-0.2-0.4-0.3c-0.1-0.1-0.2-0.2-0.4-0.3
		c0.1-0.1,0.1-0.1,0.2-0.2s0.1-0.1,0.2-0.2c0.1-0.1,0.1-0.1,0.2-0.2c-0.1-0.1-0.2-0.2-0.4-0.3c0.1-0.1,0.1-0.1,0.2-0.2
		c0.1-0.1,0.1-0.1,0.2-0.2c-0.1-0.1-0.3-0.2-0.4-0.3c0.1-0.1,0.1-0.1,0.2-0.2c0.1-0.1,0.1-0.1,0.2-0.2c0.1-0.1,0.1-0.1,0.2-0.2
		c-0.1-0.1-0.3-0.2-0.4-0.3c0.1-0.1,0.1-0.2,0.2-0.2c-0.1-0.1-0.3-0.2-0.4-0.3c0.1-0.1,0.1-0.2,0.2-0.2c0.1-0.1,0.1-0.2,0.2-0.2
		c-0.1-0.1-0.3-0.2-0.4-0.3c0.1-0.1,0.1-0.2,0.2-0.2c0.1,0.1,0.3,0.2,0.4,0.3s0.3,0.2,0.4,0.3c-0.1,0.1-0.1,0.2-0.2,0.2
		c0.1,0.1,0.3,0.2,0.4,0.3c-0.1,0.1-0.1,0.1-0.2,0.2c0.1,0.1,0.3,0.2,0.4,0.3c0.1,0.1,0.3,0.2,0.4,0.3c0.1-0.1,0.1-0.1,0.2-0.2
		c0.1,0.1,0.3,0.2,0.4,0.3c0.1-0.1,0.1-0.1,0.2-0.2c0.1-0.1,0.1-0.1,0.2-0.2c0.1-0.1,0.1-0.1,0.2-0.2c0.1-0.1,0.1-0.1,0.2-0.2
		c-0.1-0.1-0.3-0.2-0.4-0.3c0.1-0.1,0.1-0.1,0.2-0.2c0.1,0.1,0.3,0.2,0.4,0.3c0.1-0.1,0.1-0.1,0.2-0.2c0.1-0.1,0.1-0.1,0.2-0.2
		c0.1,0.1,0.3,0.2,0.4,0.3c0.1-0.1,0.1-0.1,0.2-0.2c0.1,0.1,0.3,0.2,0.4,0.3c0.1,0.1,0.3,0.2,0.4,0.3c0.1-0.1,0.1-0.1,0.2-0.2
		c0.1,0.1,0.3,0.2,0.4,0.3c0.1-0.1,0.1-0.1,0.2-0.2c0.1-0.1,0.1-0.1,0.2-0.2c0.1,0.1,0.3,0.2,0.4,0.3c0.1-0.1,0.1-0.1,0.2-0.2
		c0.1,0.1,0.3,0.2,0.4,0.4c0.1-0.1,0.1-0.1,0.2-0.2c0.1-0.1,0.1-0.1,0.2-0.2c-0.1-0.1-0.3-0.2-0.4-0.4c0.1-0.1,0.1-0.1,0.2-0.2
		c0.1-0.1,0.1-0.1,0.2-0.2c-0.1-0.1-0.3-0.2-0.4-0.4c0.1-0.1,0.1-0.1,0.2-0.2c-0.1-0.1-0.3-0.2-0.4-0.4c0.1-0.1,0.1-0.1,0.2-0.2
		c0.1,0.1,0.3,0.2,0.4,0.4c0.1-0.1,0.1-0.1,0.2-0.2c-0.1-0.1-0.3-0.2-0.4-0.4c0.1-0.1,0.1-0.1,0.2-0.2c0.1,0.1,0.3,0.2,0.4,0.4
		c0.1,0.1,0.3,0.2,0.4,0.4c-0.1,0.1-0.1,0.1-0.2,0.2c-0.1,0.1-0.1,0.1-0.2,0.2c0.1,0.1,0.3,0.2,0.4,0.4c-0.1,0.1-0.1,0.1-0.2,0.2
		c-0.1,0.1-0.1,0.1-0.2,0.2c0.1,0.1,0.3,0.2,0.4,0.4c0.1-0.1,0.1-0.1,0.2-0.2c0.1,0.1,0.3,0.3,0.4,0.4c0.1-0.1,0.1-0.1,0.2-0.2
		c0.1-0.1,0.1-0.1,0.2-0.2c-0.1-0.1-0.3-0.3-0.4-0.4c0.1-0.1,0.1-0.1,0.2-0.2c-0.1-0.1-0.3-0.3-0.4-0.4c0.1-0.1,0.1-0.1,0.2-0.2
		c0.1,0.1,0.3,0.3,0.4,0.4c0.1-0.1,0.1-0.1,0.2-0.2c0.1,0.1,0.3,0.3,0.4,0.4c0.1-0.1,0.1-0.1,0.2-0.2c0.1,0.1,0.3,0.3,0.4,0.4
		c0.1-0.1,0.1-0.1,0.2-0.2c0.1-0.1,0.1-0.1,0.2-0.2c0.1-0.1,0.1-0.1,0.2-0.2c0.1,0.1,0.3,0.3,0.4,0.4c-0.1,0.1-0.1,0.1-0.2,0.2
		c0.1,0.1,0.3,0.3,0.4,0.4c-0.1,0.1-0.1,0.1-0.2,0.2s-0.1,0.1-0.2,0.2c-0.1,0.1-0.1,0.1-0.2,0.2c0.1,0.1,0.3,0.3,0.4,0.4
		c-0.1,0.1-0.1,0.1-0.2,0.2c-0.1,0.1-0.1,0.1-0.2,0.2s-0.1,0.1-0.2,0.2c-0.1-0.1-0.3-0.3-0.4-0.4c-0.1,0.1-0.1,0.1-0.2,0.2
		c-0.1-0.1-0.3-0.3-0.4-0.4c-0.1-0.1-0.3-0.3-0.4-0.4c-0.1,0.1-0.1,0.1-0.2,0.2c-0.1,0.1-0.1,0.1-0.2,0.2c-0.1,0.1-0.1,0.1-0.2,0.2
		c-0.1,0.1-0.1,0.1-0.2,0.2c0.1,0.1,0.3,0.3,0.4,0.4c0.1,0.1,0.3,0.3,0.4,0.4c0.1-0.1,0.1-0.1,0.2-0.2s0.1-0.1,0.2-0.2
		c0.1,0.1,0.3,0.3,0.4,0.4c0.1,0.1,0.3,0.3,0.4,0.4c0.1,0.1,0.3,0.3,0.4,0.4c0.1-0.1,0.1-0.1,0.2-0.2c0.1,0.1,0.3,0.3,0.4,0.4
		c0.1-0.1,0.1-0.1,0.2-0.2c0.1-0.1,0.1-0.1,0.2-0.2c-0.1-0.1-0.3-0.3-0.4-0.4c0.1-0.1,0.1-0.1,0.2-0.2c0.1-0.1,0.1-0.1,0.2-0.2
		c0.1-0.1,0.1-0.1,0.2-0.2c0.1,0.1,0.3,0.3,0.4,0.4c0.1-0.1,0.1-0.1,0.2-0.2c0.1-0.1,0.1-0.1,0.2-0.2c-0.1-0.1-0.3-0.3-0.4-0.4
		c-0.1-0.1-0.3-0.3-0.4-0.4c-0.1-0.1-0.3-0.3-0.4-0.4c0.1-0.1,0.1-0.1,0.2-0.2c0.1-0.1,0.1-0.1,0.2-0.2c0.1-0.1,0.1-0.1,0.2-0.2
		c-0.1-0.1-0.3-0.3-0.4-0.4c0.1-0.1,0.1-0.1,0.2-0.2c-0.1-0.1-0.3-0.3-0.4-0.4c0.1-0.1,0.1-0.1,0.2-0.2c-0.1-0.1-0.3-0.3-0.4-0.4
		c0.1-0.1,0.1-0.1,0.2-0.2c-0.1-0.1-0.3-0.3-0.4-0.4c-0.1-0.1-0.3-0.3-0.4-0.4c-0.1-0.1-0.3-0.3-0.4-0.4c0.1-0.1,0.1-0.1,0.2-0.2
		c-0.1-0.1-0.3-0.3-0.4-0.4c-0.1-0.1-0.3-0.3-0.5-0.4c0.1-0.1,0.1-0.1,0.2-0.2c0.2,0.1,0.3,0.3,0.5,0.4c0.1-0.1,0.1-0.1,0.2-0.2
		c0.2,0.1,0.3,0.3,0.5,0.4c0.2,0.1,0.3,0.3,0.4,0.4c0.1,0.1,0.3,0.3,0.4,0.4c0.1,0.1,0.3,0.3,0.4,0.4c0.1,0.1,0.3,0.3,0.4,0.4
		c0.1,0.1,0.3,0.3,0.4,0.4c0.1-0.1,0.1-0.1,0.2-0.2c0.1,0.1,0.3,0.3,0.4,0.4c0.1,0.1,0.3,0.3,0.4,0.5c-0.1,0.1-0.1,0.1-0.2,0.2
		c-0.1-0.2-0.3-0.3-0.4-0.4c-0.1,0.1-0.1,0.1-0.2,0.2c-0.1,0.1-0.1,0.1-0.2,0.2c0.1,0.1,0.3,0.3,0.4,0.4c-0.1,0.1-0.1,0.1-0.2,0.2
		c0.1,0.1,0.3,0.3,0.4,0.4c-0.1,0.1-0.1,0.1-0.2,0.2c0.1,0.1,0.3,0.3,0.4,0.5c-0.1,0.1-0.1,0.1-0.2,0.2c0.1,0.2,0.3,0.3,0.4,0.5
		c-0.1,0.1-0.1,0.1-0.2,0.2c0.1,0.2,0.3,0.3,0.4,0.5c0.1-0.1,0.1-0.1,0.2-0.2c0.1-0.1,0.1-0.1,0.2-0.2c0.1-0.1,0.1-0.1,0.2-0.2
		c0.1-0.1,0.1-0.1,0.2-0.2c0.1-0.1,0.1-0.1,0.2-0.2c-0.1-0.2-0.3-0.3-0.4-0.5c0.1-0.1,0.1-0.1,0.2-0.2c0.1-0.1,0.1-0.1,0.2-0.2
		c0.1,0.2,0.3,0.3,0.4,0.5c0.1,0.2,0.3,0.3,0.4,0.5c0.1-0.1,0.1-0.1,0.2-0.2c0.1,0.2,0.3,0.3,0.4,0.5c0.1,0.2,0.3,0.3,0.4,0.5
		c0.1-0.1,0.1-0.1,0.2-0.2c0.1,0.2,0.3,0.3,0.4,0.5s0.3,0.3,0.4,0.5c0.1-0.1,0.1-0.1,0.2-0.2c0.1-0.1,0.1-0.1,0.2-0.2
		c-0.1-0.2-0.3-0.3-0.4-0.5c0.1-0.1,0.1-0.1,0.2-0.2c-0.1-0.2-0.3-0.3-0.4-0.5c-0.1-0.2-0.3-0.3-0.4-0.5c-0.1-0.2-0.3-0.3-0.4-0.5
		c-0.1-0.2-0.3-0.3-0.4-0.5c-0.1-0.2-0.3-0.3-0.4-0.5c0.1-0.1,0.1-0.1,0.2-0.2c-0.1-0.2-0.3-0.3-0.4-0.5c-0.1-0.2-0.3-0.3-0.4-0.5
		c0.1-0.1,0.1-0.1,0.2-0.2c-0.1-0.2-0.3-0.3-0.4-0.5c-0.1-0.2-0.3-0.3-0.4-0.5c-0.1,0.1-0.1,0.1-0.2,0.2c-0.1-0.2-0.3-0.3-0.4-0.5
		c-0.1-0.2-0.3-0.3-0.4-0.5c-0.2-0.1-0.3-0.3-0.5-0.4c-0.2-0.1-0.3-0.3-0.5-0.4c-0.2-0.1-0.3-0.3-0.5-0.4c-0.2-0.1-0.3-0.3-0.5-0.4
		c-0.2-0.1-0.3-0.3-0.5-0.4c0.1-0.1,0.1-0.1,0.2-0.2c-0.2-0.1-0.3-0.3-0.5-0.4c-0.2-0.1-0.3-0.3-0.5-0.4c-0.2-0.1-0.3-0.3-0.5-0.4
		c-0.2-0.1-0.3-0.3-0.5-0.4c-0.2-0.1-0.3-0.3-0.5-0.4c-0.2-0.1-0.3-0.3-0.5-0.4c0.1-0.1,0.1-0.1,0.2-0.2c-0.2-0.1-0.3-0.3-0.5-0.4
		c0.1-0.1,0.1-0.1,0.2-0.2c-0.2-0.1-0.3-0.2-0.5-0.4c-0.2-0.1-0.3-0.2-0.5-0.4c0.1-0.1,0.1-0.2,0.2-0.2c-0.2-0.1-0.3-0.2-0.5-0.4
		c-0.2-0.1-0.3-0.2-0.5-0.4c-0.2-0.1-0.4-0.2-0.5-0.3c-0.2-0.1-0.4-0.2-0.5-0.3c-0.2-0.1-0.4-0.2-0.5-0.3c0,0.1-0.1,0.2-0.1,0.2
		c0.2,0.1,0.4,0.2,0.5,0.3c0,0.1-0.1,0.2-0.1,0.2c0.2,0.1,0.4,0.2,0.5,0.3c0,0.1-0.1,0.2-0.1,0.2c-0.2-0.1-0.3-0.2-0.5-0.3
		c-0.2-0.1-0.3-0.2-0.5-0.3c-0.2-0.1-0.4-0.2-0.5-0.3c0-0.1,0.1-0.2,0.1-0.2c-0.2-0.1-0.4-0.2-0.5-0.3c-0.2-0.1-0.4-0.2-0.5-0.3
		c-0.2-0.1-0.4-0.2-0.5-0.3c-0.2-0.1-0.4-0.2-0.5-0.3c-0.2-0.1-0.4-0.2-0.5-0.3c-0.2-0.1-0.4-0.2-0.5-0.3c-0.2-0.1-0.4-0.2-0.6-0.3
		c0-0.1,0.1-0.2,0.1-0.2c-0.2-0.1-0.4-0.2-0.6-0.3c0-0.1,0.1-0.2,0.1-0.2c-0.2-0.1-0.4-0.2-0.6-0.3c-0.2-0.1-0.4-0.2-0.6-0.3
		c-0.2-0.1-0.4-0.2-0.6-0.2c-0.2-0.1-0.4-0.2-0.6-0.2c0-0.1,0.1-0.2,0.1-0.3c-0.2-0.1-0.4-0.2-0.6-0.2c-0.2-0.1-0.4-0.2-0.6-0.2
		c-0.2-0.1-0.4-0.1-0.6-0.2c-0.2-0.1-0.4-0.1-0.6-0.2c0-0.1,0.1-0.2,0.1-0.3c-0.2-0.1-0.4-0.1-0.6-0.2c-0.2-0.1-0.4-0.1-0.6-0.2
		c-0.2-0.1-0.4-0.1-0.6-0.2c-0.2-0.1-0.4-0.1-0.6-0.2c0,0.1-0.1,0.2-0.1,0.3c0.2,0.1,0.4,0.1,0.6,0.2c0.2,0.1,0.4,0.1,0.6,0.2
		c0,0.1-0.1,0.2-0.1,0.3c0.2,0.1,0.4,0.1,0.6,0.2c0,0.1-0.1,0.2-0.1,0.3c-0.2-0.1-0.4-0.1-0.6-0.2c-0.2-0.1-0.4-0.1-0.6-0.2
		c-0.2-0.1-0.4-0.1-0.6-0.2c-0.2-0.1-0.4-0.1-0.6-0.2c-0.2-0.1-0.4-0.1-0.6-0.2c0,0.1-0.1,0.2-0.1,0.3c-0.2-0.1-0.4-0.1-0.6-0.2
		c-0.2-0.1-0.4-0.1-0.6-0.2c-0.2-0.1-0.4-0.1-0.6-0.1c-0.2,0-0.4-0.1-0.6-0.1c0,0.1,0,0.2-0.1,0.3c0,0.1,0,0.2-0.1,0.3
		c-0.2,0-0.4-0.1-0.6-0.1S66.2,9.4,66,9.4c-0.2,0-0.4-0.1-0.6-0.1c0,0.1,0,0.2-0.1,0.3c-0.2,0-0.4-0.1-0.6-0.1
		c-0.2,0-0.4-0.1-0.6-0.1c-0.2,0-0.4-0.1-0.6-0.1c-0.2,0-0.4-0.1-0.6-0.1c-0.2,0-0.4-0.1-0.6-0.1C62.2,9,62,9,61.8,9
		c-0.2,0-0.4,0-0.6-0.1c-0.2,0-0.4,0-0.6-0.1c-0.2,0-0.4,0-0.6-0.1c0-0.1,0-0.2,0-0.3c-0.2,0-0.4,0-0.6-0.1c-0.2,0-0.4,0-0.6,0
		c-0.2,0-0.4,0-0.6,0c0-0.1,0-0.2,0-0.3c-0.2,0-0.4,0-0.6,0s-0.4,0-0.6,0c-0.2,0-0.4,0-0.6,0s-0.4,0-0.6,0c-0.2,0-0.4,0-0.6,0
		c0,0.1,0,0.2,0,0.3c-0.2,0-0.4,0-0.6,0c-0.2,0-0.4,0-0.6,0c-0.2,0-0.4,0-0.6,0c0,0.1,0,0.2,0,0.3c0,0.1,0,0.2,0,0.3
		c-0.2,0-0.4,0-0.6,0c0,0.1,0,0.2,0,0.3c-0.2,0-0.4,0-0.6,0c0,0.1,0,0.2,0,0.3c-0.2,0-0.4,0-0.6,0c-0.2,0-0.4,0-0.6,0
		c0,0.1,0,0.2,0,0.3c0,0.1,0,0.2,0,0.3c0,0.1,0,0.2,0,0.3c0.2,0,0.4,0,0.6,0c0,0.1,0,0.2,0,0.3c0,0.1,0,0.2,0,0.3c0.2,0,0.4,0,0.6,0
		c0,0.1,0,0.2,0,0.3c-0.2,0-0.4,0-0.6,0c-0.2,0-0.4,0-0.6,0c0,0.1,0,0.2,0,0.3c-0.2,0-0.4,0-0.6,0c0-0.1,0-0.2,0-0.3
		c-0.2,0-0.4,0-0.6,0.1c0-0.1,0-0.2,0-0.3c-0.2,0-0.4,0-0.6,0.1c0-0.1,0-0.2,0-0.3c0-0.1,0-0.2,0-0.3c0-0.1,0-0.2,0-0.3
		c-0.2,0-0.4,0-0.6,0.1c0,0.1,0,0.2,0,0.3c-0.2,0-0.4,0-0.6,0.1c-0.2,0-0.4,0.1-0.6,0.1c0,0.1,0,0.2,0,0.3c-0.2,0-0.4,0.1-0.6,0.1
		c0,0.1,0,0.2,0,0.3c-0.2,0-0.4,0.1-0.6,0.1c0,0.1,0,0.2,0,0.3c0,0.1,0,0.2,0,0.3c0,0.1,0,0.2,0,0.3c0.2,0,0.4-0.1,0.6-0.1
		c0.2,0,0.4-0.1,0.6-0.1c0,0.1,0,0.2,0,0.3c0.2,0,0.4-0.1,0.6-0.1c0,0.1,0,0.2,0,0.3c0,0.1,0,0.2,0,0.3c0.2,0,0.4,0,0.5-0.1
		c0,0.1,0,0.2,0,0.3c0,0.1,0,0.2,0,0.3c-0.2,0-0.4,0-0.5,0.1c-0.2,0-0.4,0.1-0.5,0.1c-0.2,0-0.4,0.1-0.5,0.1c-0.2,0-0.4,0.1-0.5,0.1
		c0,0.1,0,0.2,0,0.3c0,0.1,0,0.2,0,0.3c-0.2,0-0.4,0.1-0.5,0.1c0,0.1,0,0.2,0.1,0.3c0,0.1,0,0.2,0.1,0.3c0.2,0,0.4-0.1,0.5-0.1
		c0,0.1,0,0.2,0,0.3c0.2,0,0.3-0.1,0.5-0.1c0,0.1,0,0.2,0,0.3c-0.2,0-0.3,0.1-0.5,0.1c0,0.1,0,0.2,0,0.3c-0.2,0-0.3,0.1-0.5,0.1
		c0,0.1,0,0.2,0.1,0.3c0,0.1,0,0.2,0.1,0.3c-0.2,0-0.3,0.1-0.5,0.1c0,0.1,0,0.2,0.1,0.3c-0.2,0-0.3,0.1-0.5,0.1c0,0.1,0,0.2,0.1,0.3
		c-0.2,0-0.3,0.1-0.5,0.1c0,0.1,0,0.2,0.1,0.3c-0.2,0-0.3,0.1-0.5,0.1c0,0.1,0,0.2,0.1,0.3c0,0.1,0,0.2,0.1,0.3
		c-0.2,0-0.3,0.1-0.5,0.1c0,0.1,0,0.2,0.1,0.3c0,0.1,0,0.2,0.1,0.3c0.2,0,0.3-0.1,0.5-0.1c0,0.1,0,0.2,0.1,0.3c0,0.1,0,0.2,0.1,0.3
		c-0.2,0-0.3,0.1-0.5,0.1c0,0.1,0,0.2,0.1,0.3c0,0.1,0,0.2,0.1,0.3c0,0.1,0,0.2,0.1,0.3c0,0.1,0,0.2,0.1,0.3c0.2,0,0.3-0.1,0.5-0.1
		c0,0.1,0,0.2,0.1,0.3c0.2,0,0.3-0.1,0.5-0.1c0,0.1,0,0.2,0.1,0.3c0,0.1,0,0.2,0.1,0.3c0.2,0,0.3-0.1,0.5-0.1c0,0.1,0,0.2,0.1,0.3
		c0.2,0,0.3-0.1,0.5-0.1c0,0.1,0,0.2,0.1,0.3c0.2,0,0.3-0.1,0.5-0.1c0.2,0,0.3-0.1,0.5-0.1c0.2,0,0.3-0.1,0.5-0.1
		c0.2,0,0.3,0,0.5-0.1c0.2,0,0.3,0,0.5-0.1c0.2,0,0.3,0,0.5-0.1c0.2,0,0.3,0,0.5-0.1c0-0.1,0-0.2,0-0.3c0.2,0,0.3,0,0.5,0
		c0.2,0,0.3,0,0.5,0c0,0.1,0,0.2,0,0.3c0.2,0,0.3,0,0.5,0c0.2,0,0.3,0,0.5,0c0.2,0,0.3,0,0.5,0c0,0.1,0,0.2,0,0.3c0,0.1,0,0.2,0,0.3
		c0,0.1,0,0.2,0,0.3c0,0.1,0,0.2,0,0.3c0,0.1,0,0.2,0,0.3c0.1,0,0.3,0,0.4,0c0,0.1,0,0.2,0,0.3c0,0.1,0,0.2,0,0.3c0.1,0,0.3,0,0.4,0
		c0,0.1,0,0.2,0,0.3c0,0.1,0,0.2,0,0.3c0,0.1,0,0.2,0,0.3c0,0.1,0,0.2,0,0.3c0,0.1,0,0.2,0,0.3c0,0.1,0,0.2,0,0.3
		c-0.1,0-0.3,0-0.4,0c0,0.1,0,0.2,0,0.3c0,0.1,0,0.2,0,0.3c0,0.1,0,0.2,0,0.3c0.1,0,0.3,0,0.4,0c0,0.1,0,0.2,0,0.3
		c0,0.1,0,0.2,0,0.3c0.1,0,0.3,0,0.4,0c0,0.1,0,0.2,0,0.3c0,0.1,0,0.2,0,0.3c0,0.1,0,0.2,0,0.3c0,0.1,0,0.2,0,0.3c0.1,0,0.3,0,0.4,0
		c0,0.1,0,0.2,0,0.3c0,0.1,0,0.2,0,0.3c0.1,0,0.3,0,0.4,0c0,0.1,0,0.2,0,0.3c0,0.1,0,0.2,0,0.3s0,0.2,0,0.3c0.1,0,0.2,0,0.4,0
		c0.1,0,0.2,0,0.4,0c0.1,0,0.2,0,0.4,0c0.1,0,0.2,0,0.4,0c0.1,0,0.2,0,0.4,0c0-0.1,0-0.2,0-0.3c0.1,0,0.3,0,0.4,0c0.1,0,0.2,0,0.4,0
		c0-0.1,0-0.2,0-0.3c0.1,0,0.3,0,0.4,0c0-0.1,0-0.2,0-0.3c0.1,0,0.3,0,0.4,0c0-0.1,0-0.2,0-0.3c0-0.1,0-0.2,0-0.3c0.1,0,0.3,0,0.4,0
		c0-0.1,0-0.2,0-0.3c0-0.1,0-0.2,0-0.3c0.1,0,0.3,0,0.4,0c0-0.1,0-0.2,0-0.3c0-0.1,0-0.2,0-0.3c0-0.1,0-0.2,0-0.3c0-0.1,0-0.2,0-0.3
		c0.1,0,0.3,0,0.4,0.1c0-0.1,0-0.2,0-0.3c0.1,0,0.3,0,0.4,0.1c0.1,0,0.3,0,0.4,0.1c0-0.1,0-0.2,0-0.3c0.1,0,0.3,0,0.4,0.1
		c0-0.1,0-0.2,0-0.3c0-0.1,0-0.2,0-0.3c0-0.1,0-0.2,0-0.3c0-0.1,0-0.2,0-0.3c-0.1,0-0.3,0-0.4-0.1c0-0.1,0-0.2,0-0.3
		c0-0.1,0-0.2,0-0.3c0-0.1,0-0.2,0-0.3c0-0.1,0-0.2,0-0.3c0-0.1,0-0.2,0-0.3c0.1,0,0.3,0,0.4,0.1c0-0.1,0-0.2,0-0.3
		c0.1,0,0.3,0.1,0.4,0.1c0-0.1,0-0.2,0.1-0.3c0.1,0,0.3,0.1,0.4,0.1c0-0.1,0-0.2,0.1-0.3c0.1,0,0.3,0.1,0.4,0.1c0-0.1,0-0.2,0.1-0.3
		c0.1,0,0.3,0.1,0.4,0.1c0-0.1,0-0.2,0.1-0.3c0-0.1,0-0.2,0.1-0.3c0.2,0,0.3,0.1,0.5,0.1c0-0.1,0-0.2,0.1-0.3c0-0.1,0-0.2,0.1-0.3
		c0.2,0,0.3,0.1,0.5,0.1c0-0.1,0-0.2,0.1-0.3c0-0.1,0-0.2,0.1-0.3c0-0.1,0-0.2,0.1-0.3c-0.2,0-0.3-0.1-0.5-0.1c0,0.1,0,0.2-0.1,0.3
		c-0.2,0-0.3-0.1-0.5-0.1c-0.2,0-0.3-0.1-0.5-0.1c-0.2,0-0.3-0.1-0.5-0.1c-0.2,0-0.3-0.1-0.5-0.1c-0.2,0-0.3-0.1-0.5-0.1
		c0-0.1,0-0.2,0-0.3c0-0.1,0-0.2,0-0.3c-0.2,0-0.3-0.1-0.5-0.1c0-0.1,0-0.2,0-0.3c-0.2,0-0.3-0.1-0.5-0.1c0-0.1,0-0.2,0-0.3
		c0-0.1,0-0.2,0-0.3c-0.2,0-0.3,0-0.5-0.1c0-0.1,0-0.2,0-0.3c0-0.1,0-0.2,0-0.3c-0.2,0-0.3,0-0.5-0.1c0-0.1,0-0.2,0-0.3
		c0-0.1,0-0.2,0-0.3c-0.2,0-0.3,0-0.5-0.1c0-0.1,0-0.2,0-0.3c0-0.1,0-0.2,0-0.3c0.2,0,0.3,0,0.5,0.1c0,0.1,0,0.2,0,0.3
		c0.2,0,0.3,0,0.5,0.1c0,0.1,0,0.2,0,0.3c0,0.1,0,0.2,0,0.3c0.2,0,0.3,0,0.5,0.1c0,0.1,0,0.2,0,0.3s0,0.2,0,0.3c0.2,0,0.3,0,0.5,0.1
		c0,0.1,0,0.2,0,0.3c0,0.1,0,0.2,0,0.3c0.2,0,0.3,0.1,0.5,0.1c0,0.1,0,0.2,0,0.3c0.2,0,0.3,0.1,0.5,0.1c0,0.1,0,0.2-0.1,0.3
		c0,0.1,0,0.2-0.1,0.3c0.2,0,0.3,0.1,0.5,0.1c0.2,0,0.3,0.1,0.5,0.1c0.2,0,0.3,0.1,0.5,0.1c0-0.1,0-0.2,0.1-0.3
		c0.2,0,0.3,0.1,0.5,0.1c0.2,0,0.3,0.1,0.5,0.1c0-0.1,0-0.2,0.1-0.3c0.2,0,0.3,0.1,0.5,0.1c0.2,0,0.3,0.1,0.5,0.1
		c0-0.1,0-0.2,0.1-0.3c0.2,0,0.3,0.1,0.5,0.1c0-0.1,0.1-0.2,0.1-0.3c0.2,0,0.3,0.1,0.5,0.1c0-0.1,0.1-0.2,0.1-0.3
		c0.2,0,0.3,0.1,0.5,0.1c0-0.1,0.1-0.2,0.1-0.3c0-0.1,0.1-0.2,0.1-0.3c-0.2,0-0.3-0.1-0.5-0.1c-0.2,0-0.3-0.1-0.5-0.1
		c0-0.1,0.1-0.2,0.1-0.3c-0.2,0-0.3-0.1-0.5-0.1c0-0.1,0-0.2,0.1-0.3c-0.2,0-0.3-0.1-0.5-0.1c0,0.1,0,0.2-0.1,0.3
		c-0.2,0-0.3-0.1-0.5-0.1c0-0.1,0-0.2,0.1-0.3c-0.2,0-0.3-0.1-0.5-0.1c-0.2,0-0.3-0.1-0.5-0.1c0-0.1,0-0.2,0.1-0.3
		c0-0.1,0-0.2,0.1-0.3c0.2,0,0.3,0.1,0.5,0.1c0,0.1,0,0.2-0.1,0.3c0.2,0,0.3,0.1,0.5,0.1c0.2,0,0.3,0.1,0.5,0.1
		c0.2,0,0.3,0.1,0.5,0.1c0.2,0,0.3,0.1,0.5,0.1c0,0.1-0.1,0.2-0.1,0.3c0.2,0,0.3,0.1,0.5,0.1c0,0.1-0.1,0.2-0.1,0.3
		c0.2,0,0.3,0.1,0.5,0.1c0.2,0,0.3,0.1,0.5,0.2c0.2,0.1,0.3,0.1,0.5,0.2c0.2,0.1,0.3,0.1,0.5,0.2c0,0.1-0.1,0.2-0.1,0.3
		c0.2,0.1,0.3,0.1,0.5,0.2c0,0.1-0.1,0.2-0.1,0.3c0.2,0.1,0.3,0.1,0.5,0.2c0,0.1-0.1,0.2-0.1,0.3c0.2,0.1,0.3,0.1,0.5,0.2
		c0.2,0.1,0.3,0.1,0.5,0.2c0,0.1-0.1,0.2-0.1,0.3s-0.1,0.2-0.1,0.3c0,0.1-0.1,0.2-0.1,0.3c0.2,0.1,0.3,0.1,0.5,0.2
		c0,0.1-0.1,0.2-0.1,0.3c0,0.1-0.1,0.2-0.1,0.3c0,0.1-0.1,0.2-0.1,0.3c0.1,0.1,0.3,0.1,0.4,0.2c0,0.1-0.1,0.2-0.1,0.3
		c0,0.1-0.1,0.2-0.1,0.3c0.1,0.1,0.3,0.1,0.4,0.2c0,0.1-0.1,0.2-0.1,0.3c0.1,0.1,0.3,0.1,0.4,0.2c0,0.1-0.1,0.2-0.1,0.3
		c0.1,0.1,0.3,0.1,0.4,0.2c0.1,0.1,0.3,0.1,0.4,0.2c0.1,0.1,0.3,0.1,0.4,0.2c0-0.1,0.1-0.2,0.1-0.2s0.1-0.2,0.1-0.2
		c-0.1-0.1-0.3-0.1-0.4-0.2c0-0.1,0.1-0.2,0.1-0.2c-0.1-0.1-0.3-0.1-0.4-0.2c0-0.1,0.1-0.2,0.1-0.2c0-0.1,0.1-0.2,0.1-0.2
		c0.1,0.1,0.3,0.1,0.4,0.2c0-0.1,0.1-0.2,0.1-0.2c0-0.1,0.1-0.2,0.1-0.2c0.1,0.1,0.3,0.1,0.4,0.2c0-0.1,0.1-0.2,0.1-0.2
		c0.1,0.1,0.3,0.1,0.4,0.2c0-0.1,0.1-0.2,0.1-0.2c0.1,0.1,0.3,0.2,0.4,0.2c0-0.1,0.1-0.2,0.1-0.2c0-0.1,0.1-0.2,0.1-0.2
		c0.1,0.1,0.3,0.2,0.4,0.2c0.1,0.1,0.3,0.2,0.4,0.2c0,0.1-0.1,0.2-0.1,0.2c0.1,0.1,0.3,0.2,0.4,0.2c0,0.1-0.1,0.2-0.1,0.2
		c0.1,0.1,0.3,0.2,0.4,0.3c0,0.1-0.1,0.2-0.1,0.2c0,0.1-0.1,0.2-0.1,0.2c0.1,0.1,0.3,0.2,0.4,0.3c0.1,0.1,0.3,0.2,0.4,0.3
		c0,0.1-0.1,0.2-0.1,0.2c0,0.1-0.1,0.2-0.1,0.2c0.1,0.1,0.3,0.2,0.4,0.3c0,0.1-0.1,0.2-0.1,0.2c0,0.1-0.1,0.2-0.1,0.2
		c0,0.1-0.1,0.2-0.1,0.2c0,0.1-0.1,0.2-0.1,0.2c0.1,0.1,0.3,0.2,0.4,0.3c-0.1,0.1-0.1,0.2-0.2,0.2c-0.1-0.1-0.3-0.2-0.4-0.3
		c-0.1-0.1-0.3-0.2-0.4-0.3c-0.1-0.1-0.3-0.2-0.4-0.2c0,0.1-0.1,0.2-0.1,0.2c0.1,0.1,0.3,0.2,0.4,0.2c0,0.1-0.1,0.2-0.1,0.2
		c0.1,0.1,0.3,0.2,0.4,0.3c0,0.1-0.1,0.2-0.1,0.2c0,0.1-0.1,0.2-0.1,0.2c0.1,0.1,0.3,0.2,0.4,0.3c-0.1,0.1-0.1,0.2-0.2,0.2
		c0.1,0.1,0.3,0.2,0.4,0.3c-0.1,0.1-0.1,0.2-0.2,0.2c-0.1,0.1-0.1,0.2-0.2,0.2c0.1,0.1,0.2,0.2,0.4,0.3c-0.1,0.1-0.1,0.2-0.2,0.2
		c0.1,0.1,0.2,0.2,0.4,0.3c-0.1,0.1-0.1,0.1-0.2,0.2c0.1,0.1,0.2,0.2,0.4,0.3c-0.1,0.1-0.1,0.1-0.2,0.2c0.1,0.1,0.2,0.2,0.4,0.3
		c0.1,0.1,0.2,0.2,0.4,0.3C78.1,30.7,78.2,30.7,78.3,30.8z M58.9,15.3c-0.2,0-0.3,0-0.5,0c-0.2,0-0.3,0-0.5,0c0-0.1,0-0.2,0-0.3
		c-0.2,0-0.3,0-0.5,0c-0.2,0-0.3,0-0.5,0c-0.2,0-0.3,0-0.5,0c-0.2,0-0.3,0-0.5,0c0,0.1,0,0.2,0,0.3c-0.2,0-0.3,0-0.5,0s-0.3,0-0.5,0
		c0-0.1,0-0.2,0-0.3c-0.2,0-0.3,0-0.5,0c-0.2,0-0.3,0-0.5,0c0-0.1,0-0.2,0-0.3c-0.2,0-0.4,0-0.5,0c0-0.1,0-0.2,0-0.3
		c0-0.1,0-0.2,0-0.3c-0.2,0-0.4,0-0.5,0c-0.2,0-0.4,0-0.5,0c-0.2,0-0.4,0-0.5,0c-0.2,0-0.4,0-0.5,0c-0.2,0-0.4,0-0.5,0.1
		c0,0.1,0,0.2,0,0.3c-0.2,0-0.4,0-0.5,0.1s-0.4,0-0.5,0.1c0-0.1,0-0.2,0-0.3c0.2,0,0.4,0,0.5-0.1c0-0.1,0-0.2,0-0.3
		c0.2,0,0.4,0,0.5-0.1c0-0.1,0-0.2,0-0.3c0.2,0,0.4,0,0.5-0.1c0-0.1,0-0.2,0-0.3c0.2,0,0.4,0,0.5,0c0.2,0,0.4,0,0.5,0
		c0,0.1,0,0.2,0,0.3c0,0.1,0,0.2,0,0.3c0.2,0,0.4,0,0.5,0c0.2,0,0.4,0,0.5,0c0-0.1,0-0.2,0-0.3c0-0.1,0-0.2,0-0.3c0.2,0,0.4,0,0.5,0
		c0,0.1,0,0.2,0,0.3c0.2,0,0.4,0,0.5,0c0,0.1,0,0.2,0,0.3c-0.2,0-0.4,0-0.5,0c0,0.1,0,0.2,0,0.3c0,0.1,0,0.2,0,0.3
		c0.2,0,0.4,0,0.5,0c0.2,0,0.4,0,0.5,0c0-0.1,0-0.2,0-0.3c0.2,0,0.4,0,0.5,0c0-0.1,0-0.2,0-0.3c0.2,0,0.4,0,0.5,0c0,0.1,0,0.2,0,0.3
		c0.2,0,0.4,0,0.5,0c0,0.1,0,0.2,0,0.3c0.2,0,0.4,0,0.5,0c0,0.1,0,0.2,0,0.3c0.2,0,0.4,0,0.5,0c0.2,0,0.4,0,0.5,0c0-0.1,0-0.2,0-0.3
		c0.2,0,0.4,0,0.5,0c0.2,0,0.4,0,0.5,0c0.2,0,0.4,0,0.5,0c0,0.1,0,0.2,0,0.3c0.2,0,0.3,0,0.5,0.1c0.2,0,0.3,0,0.5,0.1
		c0,0.1,0,0.2,0,0.3c0,0.1,0,0.2,0,0.3c-0.2,0-0.3,0-0.5-0.1c-0.2,0-0.3,0-0.5-0.1C59.3,15.4,59.1,15.4,58.9,15.3z M58.6,13.1
		c0.2,0,0.4,0,0.5,0c0-0.1,0-0.2,0-0.3c0.2,0,0.4,0,0.5,0c0,0.1,0,0.2,0,0.3c0.2,0,0.4,0,0.5,0.1c0-0.1,0-0.2,0-0.3
		c0.2,0,0.4,0,0.5,0.1c0.2,0,0.4,0,0.5,0.1c0,0.1,0,0.2,0,0.3c0.2,0,0.4,0,0.5,0.1c0,0.1,0,0.2,0,0.3c-0.2,0-0.4,0-0.5-0.1
		c-0.2,0-0.4,0-0.5-0.1c-0.2,0-0.4,0-0.5-0.1c-0.2,0-0.4,0-0.5-0.1c-0.2,0-0.4,0-0.5,0c-0.2,0-0.4,0-0.5,0
		C58.6,13.3,58.6,13.2,58.6,13.1z M64.9,14.8c0-0.1,0-0.2,0.1-0.3c0-0.1,0-0.2,0.1-0.3c-0.2,0-0.4-0.1-0.5-0.1c0-0.1,0-0.2,0.1-0.3
		c0-0.1,0-0.2,0.1-0.3c0-0.1,0-0.2,0.1-0.3c0.2,0,0.4,0.1,0.5,0.1c0,0.1,0,0.2-0.1,0.3c0,0.1,0,0.2-0.1,0.3c0.2,0,0.4,0.1,0.5,0.1
		c0,0.1,0,0.2-0.1,0.3c0,0.1,0,0.2-0.1,0.3c0.2,0,0.4,0.1,0.5,0.1c0,0.1,0,0.2-0.1,0.3c0,0.1,0,0.2-0.1,0.3c-0.2,0-0.3-0.1-0.5-0.1
		c-0.2,0-0.3-0.1-0.5-0.1C64.8,15,64.9,14.9,64.9,14.8z M55.9,9.4c0,0.1,0,0.2,0,0.3c0,0.1,0,0.2,0,0.3c0.2,0,0.4,0,0.6,0
		c0,0.1,0,0.2,0,0.3c-0.2,0-0.4,0-0.6,0c0,0.1,0,0.2,0,0.3c0,0.1,0,0.2,0,0.3c-0.2,0-0.4,0-0.6,0c-0.2,0-0.4,0-0.6,0
		c0-0.1,0-0.2,0-0.3c0-0.1,0-0.2,0-0.3c0.2,0,0.4,0,0.6,0c0-0.1,0-0.2,0-0.3c0-0.1,0-0.2,0-0.3c0-0.1,0-0.2,0-0.3
		C55.5,9.4,55.7,9.4,55.9,9.4z"/>
	<path class="st0" d="M87.3,40.3c-0.1-0.1-0.2-0.3-0.3-0.4c-0.1,0-0.2,0.1-0.2,0.1c0.1,0.1,0.2,0.3,0.3,0.4
		C87.1,40.3,87.2,40.3,87.3,40.3z"/>
	<path class="st0" d="M80.4,31.9c0.1,0.1,0.2,0.2,0.3,0.3c0.1,0.1,0.2,0.2,0.3,0.3c0.1,0.1,0.2,0.2,0.3,0.3c0.1-0.1,0.1-0.1,0.2-0.2
		c0.1-0.1,0.1-0.1,0.2-0.2c0.1-0.1,0.1-0.1,0.2-0.2c0.1-0.1,0.1-0.1,0.2-0.2c0.1,0.1,0.2,0.2,0.3,0.3c0.1-0.1,0.1-0.1,0.2-0.2
		c0.1-0.1,0.1-0.1,0.2-0.2c-0.1-0.1-0.2-0.2-0.3-0.3c-0.1,0.1-0.1,0.1-0.2,0.2c-0.1-0.1-0.2-0.2-0.3-0.3c-0.1-0.1-0.2-0.2-0.3-0.3
		c-0.1-0.1-0.2-0.2-0.4-0.3c0.1-0.1,0.1-0.1,0.2-0.2c0.1-0.1,0.1-0.1,0.2-0.2c0.1-0.1,0.1-0.1,0.2-0.2c0.1-0.1,0.1-0.1,0.2-0.2
		c-0.1-0.1-0.2-0.2-0.4-0.3c-0.1-0.1-0.2-0.2-0.4-0.3c-0.1,0.1-0.1,0.1-0.2,0.2c-0.1-0.1-0.2-0.2-0.4-0.3s-0.2-0.2-0.4-0.3
		c-0.1,0.1-0.1,0.1-0.2,0.2c-0.1-0.1-0.2-0.2-0.4-0.3c-0.1,0.1-0.1,0.1-0.2,0.2c-0.1-0.1-0.2-0.2-0.4-0.3c-0.1-0.1-0.2-0.2-0.4-0.3
		c-0.1,0.1-0.1,0.1-0.2,0.2c-0.1,0.1-0.1,0.1-0.2,0.2c0.1,0.1,0.2,0.2,0.4,0.3c-0.1,0.1-0.1,0.1-0.2,0.2c-0.1,0.1-0.1,0.1-0.2,0.2
		c0.1,0.1,0.2,0.2,0.4,0.3c-0.1,0.1-0.1,0.1-0.2,0.2c0.1,0.1,0.2,0.2,0.4,0.3c0.1,0.1,0.2,0.2,0.4,0.3c0.1,0.1,0.2,0.2,0.4,0.3
		s0.2,0.2,0.3,0.3c0.1-0.1,0.1-0.1,0.2-0.2c0.1,0.1,0.2,0.2,0.3,0.3c-0.1,0.1-0.1,0.1-0.2,0.2C80.5,31.7,80.4,31.8,80.4,31.9z"/>
	<path class="st0" d="M85.8,37.1c-0.1-0.1-0.2-0.3-0.3-0.4c-0.1-0.1-0.2-0.3-0.3-0.4c0.1-0.1,0.1-0.1,0.2-0.2
		c-0.1-0.1-0.2-0.3-0.3-0.4c-0.1-0.1-0.2-0.3-0.3-0.4c-0.1-0.1-0.2-0.2-0.3-0.4c-0.1-0.1-0.2-0.2-0.3-0.4c0.1-0.1,0.1-0.1,0.2-0.2
		c-0.1-0.1-0.2-0.2-0.3-0.4c-0.1-0.1-0.2-0.2-0.3-0.4c-0.1-0.1-0.2-0.2-0.3-0.4c-0.1-0.1-0.2-0.2-0.3-0.3c0.1-0.1,0.1-0.1,0.2-0.2
		c0.1-0.1,0.1-0.1,0.2-0.2c-0.1-0.1-0.2-0.2-0.3-0.3c-0.1,0.1-0.1,0.1-0.2,0.2c-0.1,0.1-0.1,0.1-0.2,0.2c-0.1,0.1-0.1,0.1-0.2,0.2
		c0.1,0.1,0.2,0.2,0.3,0.3c-0.1,0.1-0.1,0.1-0.2,0.2c-0.1-0.1-0.2-0.2-0.3-0.3c-0.1-0.1-0.2-0.2-0.3-0.3C82,32.8,82,32.9,81.9,33
		c0.1,0.1,0.2,0.2,0.3,0.3c0.1,0.1,0.2,0.2,0.3,0.3c0.1,0.1,0.2,0.2,0.3,0.3c0.1,0.1,0.2,0.2,0.3,0.3c0.1,0.1,0.2,0.2,0.3,0.4
		c-0.1,0.1-0.1,0.1-0.2,0.2c0.1,0.1,0.2,0.2,0.3,0.4c0.1,0.1,0.2,0.2,0.3,0.4c-0.1,0.1-0.1,0.1-0.2,0.2c-0.1,0.1-0.1,0.1-0.2,0.2
		c0.1,0.1,0.2,0.2,0.3,0.4c0.1,0.1,0.2,0.2,0.3,0.4c0.1,0.1,0.2,0.2,0.3,0.4c0.1,0.1,0.2,0.2,0.3,0.4c0.1,0.1,0.2,0.3,0.3,0.4
		c-0.1,0.1-0.1,0.1-0.2,0.2c0.1,0.1,0.2,0.3,0.3,0.4c-0.1,0.1-0.1,0.1-0.2,0.2c0.1,0.1,0.2,0.3,0.3,0.4c0.1,0.1,0.2,0.3,0.3,0.4
		c0.1-0.1,0.2-0.1,0.2-0.2c0.1-0.1,0.2-0.1,0.2-0.2c-0.1-0.1-0.2-0.3-0.3-0.4c0.1-0.1,0.2-0.1,0.2-0.2c0.1,0.1,0.2,0.3,0.3,0.4
		c0.1-0.1,0.2-0.1,0.2-0.2c0.1,0.1,0.2,0.3,0.3,0.4c0.1-0.1,0.2-0.1,0.2-0.2c-0.1-0.1-0.2-0.3-0.3-0.4c-0.1-0.1-0.2-0.3-0.3-0.4
		c-0.1-0.1-0.2-0.3-0.3-0.4c-0.1-0.1-0.2-0.3-0.3-0.4C85.7,37.2,85.8,37.2,85.8,37.1z"/>
	<path class="st0" d="M82.6,29.4c-0.1-0.1-0.2-0.2-0.4-0.3c-0.1,0.1-0.1,0.1-0.2,0.2c-0.1-0.1-0.2-0.2-0.4-0.3
		c-0.1,0.1-0.1,0.1-0.2,0.2c0.1,0.1,0.2,0.2,0.4,0.3c0.1,0.1,0.2,0.2,0.4,0.3c0.1-0.1,0.1-0.1,0.2-0.2c0.1,0.1,0.2,0.2,0.4,0.3
		c-0.1,0.1-0.1,0.1-0.2,0.2c-0.1,0.1-0.1,0.1-0.2,0.2c0.1,0.1,0.2,0.2,0.4,0.3c-0.1,0.1-0.1,0.1-0.2,0.2c0.1,0.1,0.2,0.2,0.4,0.3
		c0.1,0.1,0.2,0.2,0.3,0.3c0.1,0.1,0.2,0.2,0.3,0.3c0.1-0.1,0.1-0.1,0.2-0.2c0.1-0.1,0.1-0.1,0.2-0.2c0.1-0.1,0.1-0.1,0.2-0.2
		c-0.1-0.1-0.2-0.2-0.4-0.4c0.1-0.1,0.1-0.1,0.2-0.2c0.1-0.1,0.1-0.1,0.2-0.2c-0.1-0.1-0.2-0.2-0.4-0.4c0.1-0.1,0.1-0.1,0.2-0.2
		c-0.1-0.1-0.2-0.2-0.4-0.4c0.1-0.1,0.1-0.1,0.2-0.2c0.1-0.1,0.1-0.1,0.2-0.2c-0.1-0.1-0.2-0.2-0.4-0.4c0.1-0.1,0.1-0.1,0.2-0.2
		c-0.1-0.1-0.3-0.2-0.4-0.3c-0.1-0.1-0.3-0.2-0.4-0.3c-0.1,0.1-0.1,0.1-0.2,0.2c-0.1,0.1-0.1,0.1-0.2,0.2c-0.1,0.1-0.1,0.1-0.2,0.2
		c0.1,0.1,0.3,0.2,0.4,0.3c-0.1,0.1-0.1,0.1-0.2,0.2C82.7,29.3,82.6,29.3,82.6,29.4z"/>
	<path class="st0" d="M84.1,27.8c0.1-0.1,0.1-0.1,0.2-0.2c-0.1-0.1-0.3-0.2-0.4-0.4c-0.1,0.1-0.1,0.1-0.2,0.2
		c-0.1,0.1-0.1,0.1-0.2,0.2c0.1,0.1,0.3,0.2,0.4,0.3C83.9,27.9,84,27.8,84.1,27.8z"/>
	<path class="st0" d="M64.4,8c0,0.1,0,0.2,0,0.3c-0.2,0-0.4-0.1-0.6-0.1c0,0.1,0,0.2,0,0.3c-0.2,0-0.4-0.1-0.6-0.1
		c0,0.1,0,0.2,0,0.3c0.2,0,0.4,0.1,0.6,0.1c0,0.1,0,0.2,0,0.3c0.2,0,0.4,0.1,0.6,0.1c0.2,0,0.4,0.1,0.6,0.1c0-0.1,0-0.2,0.1-0.3
		c0-0.1,0-0.2,0.1-0.3c0.2,0,0.4,0.1,0.6,0.1c0-0.1,0-0.2,0.1-0.3c0.2,0,0.4,0.1,0.6,0.1c0.2,0,0.4,0.1,0.6,0.1c0-0.1,0-0.2,0.1-0.3
		c-0.2,0-0.4-0.1-0.6-0.1c-0.2,0-0.4-0.1-0.6-0.1c-0.2,0-0.4-0.1-0.6-0.1C64.9,8.1,64.6,8,64.4,8z"/>
	<path class="st0" d="M62.1,7.3c0.2,0,0.4,0.1,0.6,0.1c0.2,0,0.4,0.1,0.6,0.1c0.2,0,0.4,0.1,0.6,0.1c0.2,0,0.4,0.1,0.6,0.1
		c0.2,0,0.4,0.1,0.6,0.1c0-0.1,0-0.2,0.1-0.3c0-0.1,0-0.2,0.1-0.3c-0.2,0-0.4-0.1-0.6-0.1c-0.2,0-0.4-0.1-0.6-0.1
		C63.8,7,63.6,7,63.4,7c0,0.1,0,0.2,0,0.3c-0.2,0-0.4-0.1-0.6-0.1c-0.2,0-0.4-0.1-0.6-0.1C61.9,7,61.7,7,61.5,7
		c-0.2,0-0.4,0-0.6-0.1c0,0.1,0,0.2,0,0.3c0.2,0,0.4,0,0.6,0.1C61.6,7.3,61.9,7.3,62.1,7.3z"/>
</g>
<g>
	<path class="st1" d="M112.4,36.8V15.2h9.9c1.1,0,2,0.2,2.9,0.7c0.9,0.4,1.7,1,2.3,1.7c0.6,0.7,1.1,1.5,1.5,2.4
		c0.4,0.9,0.5,1.8,0.5,2.7c0,1.3-0.3,2.4-0.8,3.5c-0.5,1.1-1.3,2-2.3,2.7l4.9,7.9h-6.7l-4.1-6.6h-2.2v6.6H112.4z M118.4,25h3.7
		c0.4,0,0.7-0.2,1-0.6c0.3-0.4,0.5-1,0.5-1.7c0-0.7-0.2-1.3-0.5-1.7c-0.4-0.4-0.7-0.6-1.1-0.6h-3.6V25z"/>
	<path class="st1" d="M142.2,31.7c0.7,0,1.3-0.2,1.8-0.5c0.5-0.3,0.9-0.7,1.2-1.2c0.3-0.5,0.5-1.1,0.7-1.7c0.1-0.6,0.2-1.3,0.2-2
		V15.2h5.9v11.1c0,1.5-0.2,2.9-0.6,4.2c-0.4,1.3-1,2.4-1.8,3.4c-0.8,1-1.8,1.7-3,2.2c-1.2,0.5-2.7,0.8-4.3,0.8
		c-1.7,0-3.2-0.3-4.4-0.9c-1.2-0.6-2.2-1.3-3-2.3s-1.4-2.1-1.7-3.4c-0.4-1.3-0.5-2.6-0.5-4.1V15.2h5.9v11.1c0,0.7,0.1,1.4,0.2,2
		c0.1,0.7,0.4,1.2,0.7,1.7c0.3,0.5,0.7,0.9,1.2,1.2C140.9,31.5,141.5,31.7,142.2,31.7z"/>
	<path class="st1" d="M161.3,26.2v10.6h-5.9V15.2h4.6l8.6,11v-11h5.9v21.5h-4.7L161.3,26.2z"/>
	<path class="st0" d="M194.5,20.4h-6.2v16.4h-5.9V20.4h-6.2v-5.2h18.3V20.4z"/>
	<path class="st0" d="M215.2,15.2v21.5h-5.9v-8.4H202v8.4h-5.9V15.2h5.9v7.9h7.2v-7.9H215.2z"/>
	<path class="st0" d="M234.3,31.6v5.2h-15.4V15.2H234v5.2h-9.2v3h7.8v4.8h-7.8v3.4H234.3z"/>
	<path class="st1" d="M269.9,15.2l-6.6,21.5h-6.1l-4.7-11.8l-4.6,11.9h-6.1L235,15.2h6.7l3.6,12.6l3.9-12.6h6.4l3.9,12.6l3.6-12.6
		H269.9z"/>
	<path class="st1" d="M279.9,36.9c-1.5,0-2.9-0.3-4.2-0.9c-1.3-0.6-2.3-1.5-3.2-2.5c-0.9-1-1.6-2.2-2.1-3.5s-0.7-2.7-0.7-4.1
		c0-1.4,0.3-2.8,0.8-4.1c0.5-1.3,1.2-2.5,2.2-3.5c0.9-1,2-1.8,3.3-2.4c1.3-0.6,2.7-0.9,4.2-0.9c1.5,0,2.9,0.3,4.2,0.9
		c1.3,0.6,2.3,1.5,3.2,2.5s1.6,2.2,2.1,3.5c0.5,1.3,0.7,2.7,0.7,4c0,1.4-0.3,2.8-0.8,4.1c-0.5,1.3-1.2,2.5-2.1,3.5s-2,1.8-3.3,2.4
		C282.8,36.6,281.4,36.9,279.9,36.9z M275.6,26c0,0.7,0.1,1.4,0.3,2.1s0.4,1.3,0.8,1.8c0.4,0.5,0.8,1,1.4,1.3
		c0.5,0.3,1.2,0.5,1.9,0.5c0.7,0,1.4-0.2,1.9-0.5c0.5-0.3,1-0.8,1.3-1.3c0.3-0.5,0.6-1.1,0.8-1.8c0.2-0.7,0.3-1.4,0.3-2.1
		c0-0.7-0.1-1.4-0.3-2.1c-0.2-0.7-0.5-1.3-0.8-1.8s-0.8-0.9-1.3-1.2c-0.5-0.3-1.2-0.5-1.9-0.5c-0.7,0-1.4,0.2-1.9,0.5
		c-0.5,0.3-1,0.8-1.3,1.3c-0.4,0.5-0.6,1.1-0.8,1.8C275.7,24.6,275.6,25.3,275.6,26z"/>
	<path class="st1" d="M292.8,36.8V15.2h9.9c1.1,0,2,0.2,2.9,0.7c0.9,0.4,1.7,1,2.3,1.7c0.6,0.7,1.1,1.5,1.5,2.4
		c0.4,0.9,0.5,1.8,0.5,2.7c0,1.3-0.3,2.4-0.8,3.5c-0.5,1.1-1.3,2-2.3,2.7l4.9,7.9H305l-4.1-6.6h-2.2v6.6H292.8z M298.7,25h3.7
		c0.4,0,0.7-0.2,1-0.6c0.3-0.4,0.5-1,0.5-1.7c0-0.7-0.2-1.3-0.5-1.7c-0.4-0.4-0.7-0.6-1.1-0.6h-3.6V25z"/>
	<path class="st1" d="M313.4,36.8V15.2h5.9v16.4h9.8v5.2H313.4z"/>
	<path class="st1" d="M330.7,36.8V15.2h8.3c1.8,0,3.3,0.3,4.7,0.8c1.4,0.6,2.5,1.3,3.4,2.3s1.6,2.1,2.1,3.4c0.5,1.3,0.7,2.7,0.7,4.2
		c0,1.6-0.3,3.1-0.8,4.4c-0.5,1.3-1.2,2.5-2.2,3.4s-2.1,1.7-3.4,2.2c-1.3,0.5-2.8,0.8-4.5,0.8H330.7z M343.8,26
		c0-0.8-0.1-1.6-0.3-2.3c-0.2-0.7-0.5-1.3-1-1.8c-0.4-0.5-0.9-0.9-1.5-1.1c-0.6-0.3-1.3-0.4-2-0.4h-2.4v11.2h2.4
		c0.8,0,1.5-0.1,2.1-0.4c0.6-0.3,1.1-0.7,1.5-1.2c0.4-0.5,0.7-1.1,0.9-1.8S343.8,26.8,343.8,26z"/>
</g>
</svg>
